<?xml version="1.0" encoding="UTF-8"?>
<!DOCTYPE svg PUBLIC "-//W3C//DTD SVG 1.1//EN" "http://www.w3.org/Graphics/SVG/1.1/DTD/svg11.dtd">
<!-- Creator: CorelDRAW X7 -->
<svg xmlns="http://www.w3.org/2000/svg" xml:space="preserve" width="1000px" height="1000px" version="1.1" style="shape-rendering:geometricPrecision; text-rendering:geometricPrecision; image-rendering:optimizeQuality; fill-rule:evenodd; clip-rule:evenodd"
viewBox="0 0 1000000 1000000"
 xmlns:xlink="http://www.w3.org/1999/xlink">
 <defs>
  <style type="text/css">
   <![CDATA[
    .fil0 {fill:url(#id0)}
    .fil1 {fill:url(#id1);fill-rule:nonzero}
   ]]>
  </style>
  <linearGradient id="id0" gradientUnits="userSpaceOnUse" x1="500004" y1="217156" x2="500004" y2="782839">
   <stop offset="0" style="stop-opacity:1; stop-color:#1DA1CC"/>
   <stop offset="0.239216" style="stop-opacity:1; stop-color:#477EB6"/>
   <stop offset="0.458824" style="stop-opacity:1; stop-color:#825BA1"/>
   <stop offset="1" style="stop-opacity:1; stop-color:#FF311A"/>
  </linearGradient>
  <linearGradient id="id1" gradientUnits="userSpaceOnUse" xlink:href="#id0" x1="500000" y1="-1.1811" x2="500000" y2="1e+006">
  </linearGradient>
 </defs>
 <g id="Layer_x0020_1">
  <metadata id="CorelCorpID_0Corel-Layer"/>
  <g id="_459936128">
   <path class="fil0" d="M498837 423072l-33552 58105 -33547 58108 962 0c40830,-40831 90974,-41292 132265,0l968 0 -33546 -58108 -33550 -58105zm-355988 101542l0 -45261c0,-13749 11247,-24999 24999,-24999l2 0c13749,0 24999,11250 24999,24999l0 45261c0,13754 -11250,24999 -24999,24999l-2 0c-13752,0 -24999,-11245 -24999,-24999zm132865 82514l0 -214255c0,-13753 11248,-25001 25000,-25001l2 0c13749,0 24999,11248 24999,25001l0 214255c0,13753 -11250,25002 -24999,25002l-2 0c-13752,0 -25000,-11249 -25000,-25002zm-66435 -44625l0 -121040c0,-13749 11250,-24997 24999,-24997l2 0c13752,0 24999,11248 24999,24997l0 121040c0,13753 -11247,25000 -24999,25000l-2 0c-13749,0 -24999,-11247 -24999,-25000zm199300 156181l0 -71801c6652,4153 13611,7866 20830,11100 9308,4358 19062,7915 29170,10594l0 50107c0,13746 -11240,24994 -24996,24994l-9 0c-13756,0 -24995,-11248 -24995,-24994zm0 -365566l0 -71804c0,-13747 11239,-24995 24995,-24995l9 0c13756,0 24996,11248 24996,24995l0 50119c-10021,2652 -19695,6175 -28927,10479 -7305,3257 -14343,7010 -21073,11206zm-66430 308057l0 -90288c11363,25258 28613,47291 49997,64369l0 25919c0,13752 -11239,24994 -24994,24994l-12 0c-13754,0 -24991,-11242 -24991,-24994zm0 -232065l0 -90279c0,-13761 11237,-24992 24991,-24992l12 0c13755,0 24994,11231 24994,24992l0 25914c-21384,17075 -38634,39104 -49997,64365zm515010 47163l0 43489c0,13752 -11248,24999 -25000,24999l-1 0c-13751,0 -24999,-11247 -24999,-24999l0 -43489c0,-13752 11248,-24999 24999,-24999l1 0c13752,0 25000,11247 25000,24999zm-132866 -83400l0 214255c0,13753 -11248,25000 -25000,25000l-1 0c-13751,0 -24999,-11247 -24999,-25000l0 -214255c0,-13753 11248,-25001 24999,-25001l1 0c13752,0 25000,11248 25000,25001zm66436 44624l0 121041c0,13750 -11250,24998 -25000,24998l-1 0c-13751,0 -24999,-11248 -24999,-24998l0 -121041c0,-13751 11248,-24999 24999,-24999l1 0c13750,0 25000,11248 25000,24999zm-199300 -156175l0 71801c-15241,-9511 -32073,-16706 -49998,-21117l0 -50684c0,-13755 11238,-24995 24991,-24995l12 0c13755,0 24995,11240 24995,24995zm0 365558l0 71804c0,13758 -11240,24994 -24995,24994l-12 0c-13753,0 -24991,-11236 -24991,-24994l0 -50689c17925,-4410 34757,-11606 49998,-21115zm66431 -308049l0 90299c-11362,-25261 -28613,-47306 -49999,-64385l0 -25914c0,-13754 11240,-24992 24995,-24992l10 0c13755,0 24994,11238 24994,24992zm0 232036l0 90308c0,13752 -11239,24994 -24994,24994l-10 0c-13755,0 -24995,-11242 -24995,-24994l0 -25919c21386,-17078 38637,-39122 49999,-64389zm-182850 186978l0 -85273c8164,1174 16508,1788 24996,1788 8491,0 16832,-614 24994,-1788l0 85273c0,13754 -11230,24996 -24994,24996l0 0c-13765,0 -24996,-11242 -24996,-24996zm0 -430411l0 -85282c0,-13754 11231,-24996 24996,-24996l0 0c13764,0 24994,11242 24994,24996l0 85282c-8162,-1175 -16503,-1790 -24994,-1790 -8488,0 -16832,615 -24996,1790zm24992 4722c92691,0 167845,75152 167845,167844 0,92692 -75154,167842 -167845,167842 -92691,0 -167843,-75150 -167843,-167842 0,-92692 75152,-167844 167843,-167844zm0 75002c51276,0 92841,41566 92841,92842 0,51276 -41565,92841 -92841,92841 -51275,0 -92839,-41565 -92839,-92841 0,-51276 41564,-92842 92839,-92842z"/>
   <path class="fil1" d="M42856 396232l353375 -353374c28572,-28573 66186,-42858 103769,-42859 37584,1 75198,14286 103769,42859l353376 353374c28571,28571 42856,66185 42857,103769 -1,37583 -14286,75197 -42857,103770l-353376 353374c-28571,28571 -66185,42856 -103769,42857 -37583,-1 -75197,-14286 -103769,-42857l-353375 -353374c-28571,-28573 -42856,-66187 -42857,-103770 1,-37584 14286,-75198 42857,-103769zm420685 -286066l-353375 353375c-9991,9992 -14987,23212 -14987,36460 0,13247 4996,26468 14987,36460l353375 353374c9992,9991 23212,14987 36459,14987 13248,0 26469,-4996 36461,-14987l353374 -353374c9991,-9992 14987,-23213 14987,-36460 0,-13248 -4996,-26468 -14987,-36460l-353374 -353375c-9992,-9991 -23213,-14987 -36461,-14987 -13247,0 -26467,4996 -36459,14987z"/>
  </g>
 </g>
</svg>
