<?xml version="1.0" encoding="UTF-8"?>
<!DOCTYPE svg PUBLIC "-//W3C//DTD SVG 1.1//EN" "http://www.w3.org/Graphics/SVG/1.1/DTD/svg11.dtd">
<!-- Creator: CorelDRAW X7 -->
<svg xmlns="http://www.w3.org/2000/svg" xml:space="preserve" width="1000px" height="432px" version="1.1" style="shape-rendering:geometricPrecision; text-rendering:geometricPrecision; image-rendering:optimizeQuality; fill-rule:evenodd; clip-rule:evenodd"
viewBox="0 0 1000000 432000"
 xmlns:xlink="http://www.w3.org/1999/xlink">
 <defs>
  <style type="text/css">
   <![CDATA[
    .fil0 {fill:url(#id0)}
    .fil1 {fill:url(#id1);fill-rule:nonzero}
    .fil2 {fill:url(#id2);fill-rule:nonzero}
   ]]>
  </style>
  <linearGradient id="id0" gradientUnits="userSpaceOnUse" x1="499942" y1="59209.9" x2="499942" y2="213076">
   <stop offset="0" style="stop-opacity:1; stop-color:#1DA1CC"/>
   <stop offset="0.239216" style="stop-opacity:1; stop-color:#477EB6"/>
   <stop offset="0.458824" style="stop-opacity:1; stop-color:#825BA1"/>
   <stop offset="1" style="stop-opacity:1; stop-color:#FF311A"/>
  </linearGradient>
  <linearGradient id="id1" gradientUnits="userSpaceOnUse" xlink:href="#id0" x1="499942" y1="145.276" x2="499942" y2="272144">
  </linearGradient>
  <linearGradient id="id2" gradientUnits="userSpaceOnUse" x1="1.00008e+006" y1="379895" x2="-81.4961" y2="379895">
   <stop offset="0" style="stop-opacity:1; stop-color:#DF3633"/>
   <stop offset="0.458824" style="stop-opacity:1; stop-color:#B54392"/>
   <stop offset="1" style="stop-opacity:1; stop-color:#0069B2"/>
  </linearGradient>
 </defs>
 <g id="Layer_x0020_1">
  <metadata id="CorelCorpID_0Corel-Layer"/>
  <g id="_453699584">
   <g>
    <path class="fil0" d="M499624 115219l-9125 15804 -9125 15806 261 0c11106,-11106 24745,-11231 35976,0l264 0 -9124 -15806 -9127 -15804zm-96828 27620l0 -12312c0,-3739 3059,-6799 6800,-6799l0 0c3741,0 6800,3060 6800,6799l0 12312c0,3741 -3059,6800 -6800,6800l0 0c-3741,0 -6800,-3059 -6800,-6800zm36140 22443l0 -58276c0,-3742 3059,-6801 6799,-6801l0 0c3741,0 6800,3059 6800,6801l0 58276c0,3741 -3059,6800 -6800,6800l0 0c-3740,0 -6799,-3059 -6799,-6800zm-18071 -12138l0 -32923c0,-3739 3060,-6798 6800,-6798l1 0c3740,0 6799,3059 6799,6798l0 32923c0,3741 -3059,6800 -6799,6800l-1 0c-3740,0 -6800,-3059 -6800,-6800zm54209 42481l0 -19530c1809,1130 3703,2141 5667,3019 2531,1186 5184,2153 7933,2882l0 13629c0,3739 -3056,6798 -6798,6798l-2 0c-3742,0 -6800,-3059 -6800,-6798zm0 -99434l0 -19530c0,-3740 3058,-6799 6800,-6799l2 0c3742,0 6798,3059 6798,6799l0 13632c-2726,722 -5357,1680 -7868,2850 -1987,887 -3901,1907 -5732,3048zm-18069 83791l0 -24557c3091,6869 7784,12863 13600,17509l0 7048c0,3742 -3057,6800 -6799,6800l-3 0c-3741,0 -6798,-3058 -6798,-6800zm0 -63120l0 -24556c0,-3743 3057,-6798 6798,-6798l3 0c3742,0 6799,3055 6799,6798l0 7048c-5816,4645 -10509,10636 -13600,17508zm140083 12828l0 11829c0,3740 -3059,6799 -6800,6799l-1 0c-3739,0 -6800,-3059 -6800,-6799l0 -11829c0,-3741 3061,-6800 6800,-6800l1 0c3741,0 6800,3059 6800,6800zm-36140 -22684l0 58276c0,3741 -3059,6800 -6799,6800l-1 0c-3740,0 -6800,-3059 -6800,-6800l0 -58276c0,-3742 3060,-6801 6800,-6801l1 0c3740,0 6799,3059 6799,6801zm18071 12137l0 32923c0,3739 -3060,6799 -6799,6799l-1 0c-3741,0 -6800,-3060 -6800,-6799l0 -32923c0,-3741 3059,-6800 6800,-6800l1 0c3739,0 6799,3059 6799,6800zm-54210 -42480l0 19530c-4144,-2587 -8724,-4544 -13599,-5744l0 -13786c0,-3742 3057,-6798 6798,-6798l3 0c3741,0 6798,3056 6798,6798zm0 99431l0 19531c0,3743 -3057,6798 -6798,6798l-3 0c-3741,0 -6798,-3055 -6798,-6798l0 -13787c4875,-1200 9455,-3157 13599,-5744zm18070 -83788l0 24561c-3090,-6871 -7783,-12867 -13599,-17513l0 -7048c0,-3741 3056,-6798 6798,-6798l2 0c3742,0 6799,3057 6799,6798zm0 63113l0 24563c0,3742 -3057,6800 -6799,6800l-2 0c-3742,0 -6798,-3058 -6798,-6800l0 -7048c5816,-4646 10509,-10642 13599,-17515zm-49735 50858l0 -23194c2220,320 4490,486 6798,486 2310,0 4579,-166 6800,-486l0 23194c0,3741 -3056,6799 -6800,6799l0 0c-3744,0 -6798,-3058 -6798,-6799zm0 -117072l0 -23195c0,-3742 3054,-6800 6798,-6800l0 0c3744,0 6800,3058 6800,6800l0 23195c-2221,-319 -4490,-486 -6800,-486 -2308,0 -4578,167 -6798,486zm6797 1285c25213,0 45654,20442 45654,45653 0,25212 -20441,45654 -45654,45654 -25212,0 -45652,-20442 -45652,-45654 0,-25211 20440,-45653 45652,-45653zm0 20400c13948,0 25253,11306 25253,25253 0,13948 -11305,25254 -25253,25254 -13947,0 -25252,-11306 -25252,-25254 0,-13947 11305,-25253 25252,-25253z"/>
    <path class="fil1" d="M375598 107919l96118 -96119c7772,-7770 18002,-11656 28225,-11656 10222,0 20454,3886 28225,11656l96118 96119c7772,7771 11657,18002 11657,28224 0,10223 -3885,20455 -11657,28226l-96118 96117c-7771,7772 -18003,11658 -28225,11658 -10223,0 -20453,-3886 -28225,-11658l-96118 -96117c-7771,-7771 -11656,-18003 -11656,-28226 0,-10222 3885,-20453 11656,-28224zm114426 -77810l-96118 96118c-2718,2718 -4076,6313 -4076,9916 0,3604 1358,7200 4076,9918l96118 96117c2718,2718 6313,4076 9917,4077 3603,0 7200,-1359 9918,-4077l96117 -96117c2717,-2718 4076,-6314 4077,-9918 -1,-3603 -1360,-7198 -4077,-9916l-96117 -96118c-2718,-2718 -6315,-4076 -9918,-4076 -3604,0 -7199,1358 -9917,4076z"/>
   </g>
   <path class="fil2" d="M40309 363716l-20785 0 0 13109 20785 0 0 -13109zm-17125 -30469c-15117,0 -23265,9448 -23265,23620l0 50545 14053 0 0 -50781c0,-6850 2599,-9448 9330,-9448l22557 0 0 -13936 -22675 0zm27753 42396l0 31768 14054 0 0 -32123c0,-6258 4489,-10510 10629,-10510 9330,0 10393,7440 10393,10510l0 2717 14172 0 0 -2362c0,-14527 -9094,-24565 -24565,-24565 -14881,0 -24683,10511 -24683,24565zm76526 -2007l0 11810 34721 0c2363,-22084 -11455,-34367 -27516,-34367 -15588,0 -28343,12991 -28343,29052 0,15824 12755,28697 28343,28697 13582,0 23266,-7676 26453,-18895l-14880 0c-2481,4134 -7086,6022 -11810,6022 -7912,0 -14408,-6731 -14408,-15824 0,-9211 6494,-16297 14408,-16297 6258,0 11810,3662 13699,9802l-20667 0zm62710 0l0 11810 34721 0c2362,-22084 -11338,-34367 -27516,-34367 -15588,0 -28343,12991 -28343,29052 0,15824 12755,28697 28343,28697 13581,0 23265,-7676 26453,-18895l-14763 0c-2598,4134 -7203,6022 -11928,6022 -7912,0 -14408,-6731 -14408,-15824 0,-9211 6495,-16297 14408,-16297 6377,0 11810,3662 13700,9802l-20667 0zm38972 33775c7794,591 14054,-945 18659,-5314 6258,-5904 7085,-14999 7085,-22202 0,-7912 1418,-9920 2717,-11338 2008,-2007 4960,-2834 8857,-2362l0 -13699c-7912,-591 -13936,1181 -18541,5668 -6377,6140 -7204,14408 -7204,21730 0,8030 -1299,10510 -2716,11809 -2008,2008 -5314,2363 -8857,2008l0 13700zm69441 -56332c-15353,0 -27752,12401 -27752,28934 0,16415 12400,28697 27752,28697 15236,0 27753,-12282 27753,-28697 0,-16533 -12519,-28934 -27753,-28934zm0 44760c-7557,0 -13581,-6495 -13581,-15707 0,-9566 6022,-16179 13581,-16179 7440,0 13582,6613 13582,16179 0,9212 -6141,15707 -13582,15707zm86210 -11692l0 -31768 -14054 0 0 32240c0,6023 -4488,10393 -10746,10393 -9330,0 -10393,-7322 -10393,-10393l0 -32240 -14054 0 0 31768c0,14408 9093,24564 24447,24564 14998,0 24800,-10510 24800,-24564zm11456 -8504l0 31768 14054 0 0 -32123c0,-6258 4488,-10510 10747,-10510 9211,0 10274,7440 10274,10510l0 32123 14172 0 0 -31768c0,-14527 -9093,-24565 -24446,-24565 -14999,0 -24801,10511 -24801,24565zm95186 -23264l-9802 0c-15470,0 -26925,12400 -26925,27870 0,15470 11573,28461 28224,28461 16652,0 28225,-12991 28225,-28933l0 -51845 -14054 0 0 51845c0,8384 -6258,15235 -14172,15235 -7794,0 -14054,-6613 -14054,-14763 0,-8148 6259,-14290 14409,-14290l8148 0 0 -13582 1 2zm107940 11337l-24446 0 0 13109 24446 0 0 -13109zm-29996 -7087c0,-6849 2598,-9447 9329,-9447l26099 0 0 -13936 -26217 0c-15235,0 -23384,9448 -23384,23620l0 26925c0,14290 8149,23620 23384,23620l26217 0 0 -13818 -26099 0c-6731,0 -9329,-2716 -9329,-9566l0 -27398zm83730 23266c4725,-4134 7558,-10038 7558,-17596l0 -9920 -14054 0 0 10746c0,6141 -3897,10393 -9447,10393 -5432,0 -9330,-4252 -9330,-10393l0 -10746 -14054 0 0 9920c0,7676 2599,13581 7086,17596 -4489,3897 -7086,9920 -7086,17478l0 10038 14054 0 0 -10747c0,-6259 3898,-10511 9330,-10511 5550,0 9447,4252 9447,10511l0 10747 14054 0 0 -10038c0,-7322 -2834,-13464 -7558,-17478zm38263 27516l9802 0c15353,0 26808,-12400 26808,-27752 0,-15589 -11574,-28580 -28225,-28580 -16533,0 -28225,12991 -28225,29052l0 51726 14172 0 0 -51726c0,-8503 6259,-15470 14054,-15470 7794,0 14172,6731 14172,14999 0,8148 -6377,14054 -14408,14054l-8148 0 0 13699 -2 -2zm45350 -23028c0,14999 8621,24683 24683,22911l0 -12755c-6850,355 -10393,-2362 -10393,-10156l0 -56451 -14290 0 0 56451zm56686 -33304c-15353,0 -27634,12401 -27634,28934 0,16415 12282,28697 27634,28697 15235,0 27752,-12282 27752,-28697 0,-16533 -12518,-28934 -27752,-28934zm0 44760c-7440,0 -13582,-6495 -13582,-15707 0,-9566 6141,-16179 13582,-16179 7440,0 13581,6613 13581,16179 0,9212 -6140,15707 -13581,15707zm36965 -20196l0 31768 14054 0 0 -32123c0,-6258 4488,-10510 10747,-10510 9329,0 10392,7440 10392,10510l0 2717 14054 0 0 -2362c0,-14527 -9093,-24565 -24446,-24565 -14999,0 -24801,10511 -24801,24565zm76644 -2007l0 11810 34721 0c2362,-22084 -11456,-34367 -27634,-34367 -15589,0 -28225,12991 -28225,29052 0,15824 12636,28697 28225,28697 13581,0 23383,-7676 26571,-18895l-14881 0c-2598,4134 -7203,6022 -11928,6022 -7794,0 -14408,-6731 -14408,-15824 0,-9211 6613,-16297 14408,-16297 6377,0 11810,3662 13700,9802l-20549 0zm43814 2007l0 31768 14054 0 0 -32123c0,-6258 4488,-10510 10747,-10510 9211,0 10274,7440 10274,10510l0 2717 14172 0 0 -2362c0,-14527 -9093,-24565 -24446,-24565 -14999,0 -24801,10511 -24801,24565z"/>
  </g>
 </g>
</svg>
