<?xml version="1.0" encoding="UTF-8"?>
<!DOCTYPE svg PUBLIC "-//W3C//DTD SVG 1.1//EN" "http://www.w3.org/Graphics/SVG/1.1/DTD/svg11.dtd">
<!-- Creator: CorelDRAW X7 -->
<svg xmlns="http://www.w3.org/2000/svg" xml:space="preserve" width="84.6666mm" height="84.6666mm" version="1.1" style="shape-rendering:geometricPrecision; text-rendering:geometricPrecision; image-rendering:optimizeQuality; fill-rule:evenodd; clip-rule:evenodd"
viewBox="0 0 8467 8467"
 xmlns:xlink="http://www.w3.org/1999/xlink">
 <defs>
  <style type="text/css">
   <![CDATA[
    .fil0 {fill:black}
    .fil1 {fill:black;fill-rule:nonzero}
   ]]>
  </style>
 </defs>
 <g id="Layer_x0020_1">
  <metadata id="CorelCorpID_0Corel-Layer"/>
  <g id="_339606144">
   <g>
    <path class="fil0" d="M4223 3582l-284 492 -284 492 9 0c345,-346 770,-350 1119,0l9 0 -284 -492 -285 -492z"/>
    <path class="fil0" d="M4233 2812c785,0 1421,637 1421,1421 0,785 -636,1421 -1421,1421 -784,0 -1421,-636 -1421,-1421 0,-784 637,-1421 1421,-1421zm0 635c434,0 786,352 786,786 0,434 -352,786 -786,786 -434,0 -786,-352 -786,-786 0,-434 352,-786 786,-786z"/>
   </g>
   <path class="fil1" d="M363 3355l2992 -2992c242,-242 560,-363 878,-363 319,0 637,121 879,363l2992 2992c242,242 363,560 363,878 0,319 -121,637 -363,879l-2992 2992c-242,242 -560,363 -879,363 -318,0 -636,-121 -878,-363l-2992 -2992c-242,-242 -363,-560 -363,-879 0,-318 121,-636 363,-878zm3562 -2422l-2992 2992c-85,84 -127,196 -127,308 0,113 42,224 127,309l2992 2992c84,85 196,127 308,127 112,0 224,-42 309,-127l2992 -2992c85,-85 127,-196 127,-309 0,-112 -42,-224 -127,-308l-2992 -2992c-85,-85 -196,-127 -309,-127 -112,0 -224,42 -308,127z"/>
   <g>
    <path class="fil0" d="M4022 2772l0 -722c0,-116 95,-211 211,-211l0 0c117,0 212,95 212,211l0 722c-69,-10 -140,-15 -212,-15 -71,0 -142,5 -211,15z"/>
    <path class="fil0" d="M4022 6416l0 -722c69,10 140,16 211,16 72,0 143,-6 212,-16l0 722c0,117 -95,212 -212,212l0 0c-116,0 -211,-95 -211,-212z"/>
   </g>
   <g>
    <path class="fil0" d="M5570 4833l0 765c0,116 -95,212 -212,212l0 0c-116,0 -211,-96 -211,-212l0 -220c181,-144 327,-331 423,-545z"/>
    <path class="fil0" d="M5570 2869l0 764c-96,-214 -242,-400 -423,-545l0 -219c0,-117 95,-212 211,-212l0 0c117,0 212,95 212,212z"/>
   </g>
   <g>
    <path class="fil0" d="M5007 5477l0 608c0,116 -95,211 -211,211l0 0c-117,0 -212,-95 -212,-211l0 -429c152,-38 294,-99 423,-179z"/>
    <path class="fil0" d="M5007 2382l0 608c-129,-81 -271,-142 -423,-179l0 -429c0,-117 95,-212 212,-212l0 0c116,0 211,95 211,212z"/>
   </g>
   <rect class="fil0" transform="matrix(-1.75087E-014 1.06069 -1.73918 -7.39033E-014 6694.82 3492.48)" width="1365" height="243" rx="122" ry="122"/>
   <rect class="fil0" transform="matrix(-1.87955E-014 1.63878 -1.73918 -1.06364E-013 6132.34 3114.65)" width="1365" height="243" rx="122" ry="122"/>
   <rect class="fil0" transform="matrix(-1.21815E-014 0.579767 -1.73918 -5.80606E-014 7257.27 3820.77)" width="1365" height="243" rx="122" ry="122"/>
   <path class="fil0" d="M2897 5598l0 -764c96,213 242,400 423,544l0 220c0,116 -95,212 -211,212l-1 0c-116,0 -211,-96 -211,-212zm0 -1965l0 -764c0,-117 95,-212 211,-212l1 0c116,0 211,95 211,212l0 219c-181,145 -327,331 -423,545z"/>
   <g>
    <path class="fil0" d="M3459 2990l0 -608c0,-117 95,-212 212,-212l0 0c116,0 212,95 212,212l0 424c-85,23 -167,52 -245,89 -62,27 -122,59 -179,95z"/>
    <path class="fil0" d="M3459 6085l0 -608c57,35 116,67 177,94 78,37 161,67 247,90l0 424c0,116 -96,211 -212,211l0 0c-117,0 -212,-95 -212,-211z"/>
   </g>
   <rect class="fil0" transform="matrix(1.75087E-014 -1.06069 1.73918 7.39033E-014 1771.9 4974.18)" width="1365" height="243" rx="122" ry="122"/>
   <rect class="fil0" transform="matrix(1.87955E-014 -1.63878 1.73918 1.06364E-013 2334.38 5352.01)" width="1365" height="243" rx="122" ry="122"/>
   <rect class="fil0" transform="matrix(1.21815E-014 -0.590747 1.73918 5.91602E-014 1209.45 4653.39)" width="1365" height="243" rx="122" ry="122"/>
  </g>
 </g>
</svg>
