<?xml version="1.0" encoding="UTF-8"?>
<!DOCTYPE svg PUBLIC "-//W3C//DTD SVG 1.1//EN" "http://www.w3.org/Graphics/SVG/1.1/DTD/svg11.dtd">
<!-- Creator: CorelDRAW X7 -->
<svg xmlns="http://www.w3.org/2000/svg" xml:space="preserve" width="1000px" height="203px" version="1.1" style="shape-rendering:geometricPrecision; text-rendering:geometricPrecision; image-rendering:optimizeQuality; fill-rule:evenodd; clip-rule:evenodd"
viewBox="0 0 1000000 202999"
 xmlns:xlink="http://www.w3.org/1999/xlink">
 <defs>
  <style type="text/css">
   <![CDATA[
    .fil0 {fill:url(#id0)}
    .fil2 {fill:url(#id1);fill-rule:nonzero}
    .fil1 {fill:url(#id2);fill-rule:nonzero}
   ]]>
  </style>
  <linearGradient id="id0" gradientUnits="userSpaceOnUse" x1="101525" y1="44192.2" x2="101525" y2="158805">
   <stop offset="0" style="stop-opacity:1; stop-color:#1DA1CC"/>
   <stop offset="0.239216" style="stop-opacity:1; stop-color:#477EB6"/>
   <stop offset="0.458824" style="stop-opacity:1; stop-color:#825BA1"/>
   <stop offset="1" style="stop-opacity:1; stop-color:#FF311A"/>
  </linearGradient>
  <linearGradient id="id1" gradientUnits="userSpaceOnUse" x1="999779" y1="101499" x2="254302" y2="101499">
   <stop offset="0" style="stop-opacity:1; stop-color:#DF3633"/>
   <stop offset="0.458824" style="stop-opacity:1; stop-color:#B54392"/>
   <stop offset="1" style="stop-opacity:1; stop-color:#0069B2"/>
  </linearGradient>
  <linearGradient id="id2" gradientUnits="userSpaceOnUse" xlink:href="#id0" x1="101524" y1="193.701" x2="101524" y2="202805">
  </linearGradient>
 </defs>
 <g id="Layer_x0020_1">
  <metadata id="CorelCorpID_0Corel-Layer"/>
  <g id="_454286008">
   <g>
    <path class="fil0" d="M101289 85913l-6798 11773 -6798 11773 195 0c8274,-8273 18433,-8366 26799,0l197 0 -6798 -11773 -6797 -11773zm-72128 20574l0 -9171c0,-2785 2280,-5065 5066,-5065l0 0c2786,0 5065,2280 5065,5065l0 9171c0,2786 -2279,5065 -5065,5065l0 0c-2786,0 -5066,-2279 -5066,-5065zm26920 16717l0 -43410c0,-2786 2280,-5066 5066,-5066l0 0c2786,0 5066,2280 5066,5066l0 43410c0,2788 -2280,5066 -5066,5066l0 0c-2786,0 -5066,-2278 -5066,-5066zm-13460 -9041l0 -24523c0,-2786 2280,-5066 5065,-5066l1 0c2786,0 5065,2280 5065,5066l0 24523c0,2786 -2279,5066 -5065,5066l-1 0c-2785,0 -5065,-2280 -5065,-5066zm40380 31644l0 -14547c1349,840 2758,1593 4221,2248 1885,884 3862,1604 5910,2146l0 10153c0,2785 -2278,5065 -5064,5065l-3 0c-2786,0 -5064,-2280 -5064,-5065zm0 -74067l0 -14549c0,-2785 2278,-5064 5064,-5064l3 0c2786,0 5064,2279 5064,5064l0 10156c-2030,536 -3991,1250 -5861,2122 -1480,660 -2906,1421 -4270,2271zm-13459 62416l0 -18294c2302,5117 5797,9582 10131,13042l0 5252c0,2786 -2278,5063 -5065,5063l-2 0c-2787,0 -5064,-2277 -5064,-5063zm0 -47019l0 -18292c0,-2788 2277,-5063 5064,-5063l2 0c2787,0 5065,2275 5065,5063l0 5250c-4334,3460 -7829,7923 -10131,13042zm104347 9555l0 8811c0,2786 -2279,5066 -5066,5066l0 0c-2786,0 -5065,-2280 -5065,-5066l0 -8811c0,-2786 2279,-5064 5065,-5064l0 0c2787,0 5066,2278 5066,5064zm-26921 -16898l0 43410c0,2788 -2278,5066 -5064,5066l-2 0c-2785,0 -5064,-2278 -5064,-5066l0 -43410c0,-2786 2279,-5066 5064,-5066l2 0c2786,0 5064,2280 5064,5066zm13461 9042l0 24524c0,2786 -2279,5065 -5065,5065l0 0c-2787,0 -5065,-2279 -5065,-5065l0 -24524c0,-2787 2278,-5065 5065,-5065l0 0c2786,0 5065,2278 5065,5065zm-40380 -31643l0 14547c-3088,-1926 -6499,-3384 -10131,-4278l0 -10269c0,-2787 2277,-5064 5065,-5064l2 0c2786,0 5064,2277 5064,5064zm0 74065l0 14549c0,2788 -2278,5065 -5064,5065l-2 0c-2788,0 -5065,-2277 -5065,-5065l0 -10269c3632,-895 7043,-2352 10131,-4280zm13459 -62413l0 18296c-2302,-5119 -5796,-9585 -10130,-13046l0 -5250c0,-2787 2277,-5063 5065,-5063l1 0c2787,0 5064,2276 5064,5063zm0 47013l0 18298c0,2786 -2277,5063 -5064,5063l-1 0c-2788,0 -5065,-2277 -5065,-5063l0 -5252c4334,-3460 7828,-7927 10130,-13046zm-37047 37884l0 -17277c1654,237 3345,362 5064,362 1721,0 3411,-125 5065,-362l0 17277c0,2786 -2276,5064 -5065,5064l0 0c-2788,0 -5064,-2278 -5064,-5064zm0 -87206l0 -17279c0,-2786 2276,-5065 5064,-5065l0 0c2789,0 5065,2279 5065,5065l0 17279c-1654,-238 -3344,-362 -5065,-362 -1719,0 -3410,124 -5064,362zm5064 957c18780,0 34007,15227 34007,34006 0,18781 -15227,34007 -34007,34007 -18780,0 -34007,-15226 -34007,-34007 0,-18779 15227,-34006 34007,-34006zm0 15196c10389,0 18811,8421 18811,18810 0,10389 -8422,18811 -18811,18811 -10389,0 -18810,-8422 -18810,-18811 0,-10389 8421,-18810 18810,-18810z"/>
    <path class="fil1" d="M8902 80474l71597 -71597c5790,-5788 13411,-8683 21025,-8683 7616,0 15236,2895 21025,8683l71597 71597c5790,5790 8684,13411 8684,21025 0,7616 -2894,15237 -8684,21025l-71597 71597c-5789,5790 -13409,8684 -21025,8684 -7614,0 -15235,-2894 -21025,-8684l-71597 -71597c-5789,-5788 -8683,-13409 -8683,-21025 0,-7614 2894,-15236 8683,-21025zm85235 -57959l-71597 71598c-2024,2024 -3036,4703 -3036,7386 0,2685 1012,5364 3036,7388l71597 71597c2025,2025 4704,3037 7387,3037 2685,0 5363,-1012 7388,-3037l71597 -71597c2025,-2024 3037,-4703 3037,-7388 0,-2683 -1012,-5362 -3037,-7386l-71597 -71598c-2025,-2024 -4703,-3036 -7388,-3036 -2683,0 -5362,1012 -7387,3036z"/>
   </g>
   <path class="fil2" d="M284407 89434l-15451 0 0 9796 15451 0 0 -9796zm-12743 -22699c-11310,0 -17362,7008 -17362,17602l0 37672 10513 0 0 -37911c0,-5098 1911,-7009 6929,-7009l16805 0 0 -10354 -16885 0zm20628 31539l0 23735 10513 0 0 -23974c0,-4619 3345,-7805 7966,-7805 6928,0 7724,5496 7724,7805l0 2072 10514 0 0 -1833c0,-10752 -6771,-18318 -18238,-18318 -11151,0 -18479,7885 -18479,18318zm57106 -1433l0 8761 25885 0c1752,-16407 -8522,-25646 -20549,-25646 -11628,0 -21105,9717 -21105,21664 0,11787 9477,21424 21105,21424 10116,0 17363,-5734 19753,-14098l-11071 0c-1912,3108 -5336,4461 -8841,4461 -5894,0 -10752,-5017 -10752,-11787 0,-6849 4858,-12107 10752,-12107 4699,0 8761,2709 10195,7328l-15372 0zm46751 0l0 8761 25885 0c1752,-16407 -8521,-25646 -20549,-25646 -11628,0 -21105,9717 -21105,21664 0,11787 9477,21424 21105,21424 10117,0 17364,-5734 19752,-14098l-11069 0c-1913,3108 -5337,4461 -8842,4461 -5894,0 -10752,-5017 -10752,-11787 0,-6849 4858,-12107 10752,-12107 4700,0 8761,2709 10195,7328l-15372 0zm28991 25168c5814,397 10513,-717 13938,-3983 4699,-4380 5257,-11150 5257,-16566 0,-5893 1116,-7406 2071,-8442 1512,-1513 3664,-2071 6610,-1752l0 -10195c-5894,-477 -10434,876 -13858,4221 -4779,4540 -5336,10753 -5336,16168 0,5974 -1036,7885 -2071,8841 -1513,1513 -3902,1753 -6611,1513l0 10195zm51769 -42053c-11389,0 -20628,9319 -20628,21583 0,12266 9239,21426 20628,21426 11390,0 20709,-9160 20709,-21426 0,-12264 -9319,-21583 -20709,-21583zm0 33371c-5574,0 -10115,-4778 -10115,-11707 0,-7089 4541,-12026 10115,-12026 5575,0 10115,4937 10115,12026 0,6929 -4540,11707 -10115,11707zm64275 -8680l0 -23655 -10514 0 0 23973c0,4540 -3344,7806 -7964,7806 -6929,0 -7726,-5496 -7726,-7806l0 -23973 -10513 0 0 23655c0,10752 6770,18318 18239,18318 11150,0 18478,-7885 18478,-18318zm8522 -6373l0 23735 10513 0 0 -23974c0,-4619 3344,-7805 7965,-7805 6928,0 7724,5496 7724,7805l0 23974 10515 0 0 -23735c0,-10752 -6772,-18318 -18239,-18318 -11151,0 -18478,7885 -18478,18318zm70963 -17282l-7327 0c-11469,0 -20070,9238 -20070,20707 0,11549 8681,21266 21105,21266 12345,0 21027,-9717 21027,-21584l0 -38628 -10514 0 0 38628c0,6292 -4699,11390 -10513,11390 -5814,0 -10512,-4940 -10512,-11072 0,-6052 4698,-10593 10752,-10593l6052 0 0 -10114zm80441 8442l-18158 0 0 9796 18158 0 0 -9796zm-22380 -5336c0,-5098 1991,-7009 7009,-7009l19433 0 0 -10354 -19512 0c-11389,0 -17443,7008 -17443,17602l0 20070c0,10592 6054,17602 17443,17602l19512 0 0 -10355 -19433 0c-5018,0 -7009,-1991 -7009,-7087l0 -20469zm62442 17362c3504,-3026 5655,-7486 5655,-13062l0 -7406 -10514 0 0 7964c0,4619 -2867,7806 -7009,7806 -4062,0 -6928,-3187 -6928,-7806l0 -7964 -10513 0 0 7406c0,5656 1911,10115 5256,13062 -3345,2947 -5256,7407 -5256,13062l0 7487 10513 0 0 -8044c0,-4620 2866,-7806 6928,-7806 4142,0 7009,3186 7009,7806l0 8044 10514 0 0 -7487c0,-5496 -2151,-10036 -5655,-13062zm28513 20549l7327 0c11469,0 19991,-9238 19991,-20708 0,-11628 -8601,-21345 -21026,-21345 -12345,0 -21026,9717 -21026,21664l0 38627 10513 0 0 -38627c0,-6292 4698,-11470 10513,-11470 5813,0 10513,5019 10513,11151 0,6053 -4700,10513 -10753,10513l-6052 0 0 10195zm33849 -17204c0,11230 6372,18398 18398,17124l0 -9558c-5178,319 -7806,-1751 -7806,-7566l0 -42052 -10592 0 0 42052zm42212 -24849c-11390,0 -20628,9319 -20628,21583 0,12266 9238,21426 20628,21426 11389,0 20708,-9160 20708,-21426 0,-12264 -9319,-21583 -20708,-21583zm0 33371c-5576,0 -10115,-4778 -10115,-11707 0,-7089 4539,-12026 10115,-12026 5574,0 10115,4937 10115,12026 0,6929 -4541,11707 -10115,11707zm27557 -15053l0 23735 10513 0 0 -23974c0,-4619 3345,-7805 7965,-7805 6929,0 7725,5496 7725,7805l0 2072 10513 0 0 -1833c0,-10752 -6770,-18318 -18238,-18318 -11150,0 -18478,7885 -18478,18318zm57105 -1433l0 8761 25885 0c1752,-16407 -8521,-25646 -20549,-25646 -11628,0 -21105,9717 -21105,21664 0,11787 9477,21424 21105,21424 10117,0 17364,-5734 19753,-14098l-11070 0c-1912,3108 -5336,4461 -8841,4461 -5895,0 -10753,-5017 -10753,-11787 0,-6849 4858,-12107 10753,-12107 4699,0 8760,2709 10194,7328l-15372 0zm32655 1433l0 23735 10513 0 0 -23974c0,-4619 3345,-7805 7966,-7805 6928,0 7724,5496 7724,7805l0 2072 10513 0 0 -1833c0,-10752 -6770,-18318 -18237,-18318 -11151,0 -18479,7885 -18479,18318z"/>
  </g>
 </g>
</svg>
