<?xml version="1.0" encoding="UTF-8"?>
<!DOCTYPE svg PUBLIC "-//W3C//DTD SVG 1.1//EN" "http://www.w3.org/Graphics/SVG/1.1/DTD/svg11.dtd">
<!-- Creator: CorelDRAW X7 -->
<svg xmlns="http://www.w3.org/2000/svg" xml:space="preserve" width="144px" height="144px" version="1.1" style="shape-rendering:geometricPrecision; text-rendering:geometricPrecision; image-rendering:optimizeQuality; fill-rule:evenodd; clip-rule:evenodd"
viewBox="0 0 144000 144000"
 xmlns:xlink="http://www.w3.org/1999/xlink">
 <defs>
  <style type="text/css">
   <![CDATA[
    .fil0 {fill:url(#id0)}
    .fil1 {fill:url(#id1);fill-rule:nonzero}
   ]]>
  </style>
  <linearGradient id="id0" gradientUnits="userSpaceOnUse" x1="72000" y1="31270.2" x2="72000" y2="112730">
   <stop offset="0" style="stop-opacity:1; stop-color:#1DA1CC"/>
   <stop offset="0.239216" style="stop-opacity:1; stop-color:#477EB6"/>
   <stop offset="0.458824" style="stop-opacity:1; stop-color:#825BA1"/>
   <stop offset="1" style="stop-opacity:1; stop-color:#FF311A"/>
  </linearGradient>
  <linearGradient id="id1" gradientUnits="userSpaceOnUse" xlink:href="#id0" x1="72000" y1="-1.18112" x2="72000" y2="144001">
  </linearGradient>
 </defs>
 <g id="Layer_x0020_1">
  <metadata id="CorelCorpID_0Corel-Layer"/>
  <g id="_452431024">
   <path class="fil0" d="M71832 60922l-4831 8367 -4830 8369 138 0c5880,-5881 13100,-5947 19047,0l138 0 -4830 -8369 -4832 -8367zm-51263 14623l0 -6518c0,-1981 1621,-3600 3600,-3600l0 0c1981,0 3600,1619 3600,3600l0 6518c0,1980 -1619,3600 -3600,3600l0 0c-1979,0 -3600,-1620 -3600,-3600zm19133 11882l0 -30854c0,-1980 1621,-3600 3600,-3600l0 0c1981,0 3600,1620 3600,3600l0 30854c0,1980 -1619,3600 -3600,3600l0 0c-1979,0 -3600,-1620 -3600,-3600zm-9567 -6427l0 -17430c0,-1979 1621,-3599 3600,-3599l1 0c1980,0 3599,1620 3599,3599l0 17430c0,1981 -1619,3600 -3599,3600l-1 0c-1979,0 -3600,-1619 -3600,-3600zm28700 22491l0 -10339c958,597 1960,1132 3000,1598 1340,628 2745,1139 4200,1526l0 7215c0,1980 -1618,3599 -3599,3599l-2 0c-1981,0 -3599,-1619 -3599,-3599zm0 -52643l0 -10339c0,-1980 1618,-3599 3599,-3599l2 0c1981,0 3599,1619 3599,3599l0 7217c-1443,382 -2836,889 -4165,1509 -1052,469 -2066,1010 -3035,1613zm-9566 44361l0 -13001c1636,3637 4120,6810 7200,9269l0 3732c0,1981 -1619,3600 -3600,3600l-1 0c-1981,0 -3599,-1619 -3599,-3600zm0 -33417l0 -13001c0,-1981 1618,-3599 3599,-3599l1 0c1981,0 3600,1618 3600,3599l0 3732c-3080,2459 -5564,5631 -7200,9269zm74163 6791l0 6262c0,1981 -1621,3600 -3600,3600l0 0c-1981,0 -3600,-1619 -3600,-3600l0 -6262c0,-1980 1619,-3600 3600,-3600l0 0c1979,0 3600,1620 3600,3600zm-19133 -12010l0 30854c0,1980 -1621,3600 -3600,3600l0 0c-1981,0 -3600,-1620 -3600,-3600l0 -30854c0,-1980 1619,-3600 3600,-3600l0 0c1979,0 3600,1620 3600,3600zm9567 6427l0 17430c0,1979 -1620,3600 -3600,3600l-1 0c-1980,0 -3599,-1621 -3599,-3600l0 -17430c0,-1981 1619,-3600 3599,-3600l1 0c1980,0 3600,1619 3600,3600zm-28700 -22490l0 10340c-2195,-1370 -4618,-2406 -7200,-3042l0 -7298c0,-1981 1618,-3600 3599,-3600l2 0c1981,0 3599,1619 3599,3600zm0 52640l0 10341c0,1981 -1618,3599 -3599,3599l-2 0c-1981,0 -3599,-1618 -3599,-3599l0 -7299c2582,-636 5005,-1672 7200,-3042zm9566 -44359l0 13004c-1636,-3638 -4120,-6813 -7200,-9272l0 -3732c0,-1980 1619,-3599 3600,-3599l1 0c1981,0 3599,1619 3599,3599zm0 33414l0 13004c0,1981 -1618,3600 -3599,3600l-1 0c-1981,0 -3600,-1619 -3600,-3600l0 -3732c3080,-2459 5564,-5633 7200,-9272zm-26331 26925l0 -12279c1177,169 2378,257 3600,257 1223,0 2424,-88 3599,-257l0 12279c0,1980 -1617,3600 -3599,3600l0 0c-1983,0 -3600,-1620 -3600,-3600zm0 -61980l0 -12281c0,-1981 1617,-3599 3600,-3599l0 0c1982,0 3599,1618 3599,3599l0 12281c-1175,-169 -2376,-257 -3599,-257 -1222,0 -2423,88 -3600,257zm3599 680c13348,0 24170,10822 24170,24170 0,13348 -10822,24169 -24170,24169 -13348,0 -24169,-10821 -24169,-24169 0,-13348 10821,-24170 24169,-24170zm0 10801c7384,0 13369,5985 13369,13369 0,7384 -5985,13369 -13369,13369 -7383,0 -13369,-5985 -13369,-13369 0,-7384 5986,-13369 13369,-13369z"/>
   <path class="fil1" d="M6170 57058l50888 -50888c4113,-4114 9530,-6171 14942,-6171 5412,0 10829,2057 14944,6171l50886 50888c4114,4113 6171,9530 6171,14942 0,5412 -2057,10829 -6171,14944l-50886 50886c-4115,4114 -9532,6171 -14944,6171 -5412,0 -10829,-2057 -14942,-6171l-50888 -50886c-4114,-4115 -6171,-9532 -6171,-14944 0,-5412 2057,-10829 6171,-14942zm60580 -41194l-50886 50886c-1439,1439 -2159,3342 -2159,5250 0,1908 720,3811 2159,5250l50886 50886c1439,1440 3342,2159 5250,2159 1908,0 3811,-719 5250,-2159l50886 -50886c1440,-1439 2159,-3342 2159,-5250 0,-1908 -719,-3811 -2159,-5250l-50886 -50886c-1439,-1439 -3342,-2159 -5250,-2159 -1908,0 -3811,720 -5250,2159z"/>
  </g>
 </g>
</svg>
