<?xml version="1.0" encoding="UTF-8"?>
<!DOCTYPE svg PUBLIC "-//W3C//DTD SVG 1.1//EN" "http://www.w3.org/Graphics/SVG/1.1/DTD/svg11.dtd">
<!-- Creator: CorelDRAW X7 -->
<svg xmlns="http://www.w3.org/2000/svg" xml:space="preserve" width="16px" height="16px" version="1.1" style="shape-rendering:geometricPrecision; text-rendering:geometricPrecision; image-rendering:optimizeQuality; fill-rule:evenodd; clip-rule:evenodd"
viewBox="0 0 16000 16000"
 xmlns:xlink="http://www.w3.org/1999/xlink">
 <defs>
  <style type="text/css">
   <![CDATA[
    .fil0 {fill:url(#id0)}
    .fil1 {fill:url(#id1);fill-rule:nonzero}
   ]]>
  </style>
  <linearGradient id="id0" gradientUnits="userSpaceOnUse" x1="8000" y1="3473.79" x2="8000" y2="12526.2">
   <stop offset="0" style="stop-opacity:1; stop-color:#1DA1CC"/>
   <stop offset="0.239216" style="stop-opacity:1; stop-color:#477EB6"/>
   <stop offset="0.458824" style="stop-opacity:1; stop-color:#825BA1"/>
   <stop offset="1" style="stop-opacity:1; stop-color:#FF311A"/>
  </linearGradient>
  <linearGradient id="id1" gradientUnits="userSpaceOnUse" xlink:href="#id0" x1="8000" y1="0" x2="8000" y2="16000">
  </linearGradient>
 </defs>
 <g id="Layer_x0020_1">
  <metadata id="CorelCorpID_0Corel-Layer"/>
  <g id="_452431744">
   <path class="fil0" d="M7981 6769l-536 930 -538 929 16 0c653,-653 1456,-660 2116,0l16 0 -536 -929 -538 -930zm-5695 1624l0 -724c0,-219 179,-399 399,-399l0 0c221,0 400,180 400,399l0 724c0,221 -179,401 -400,401l0 0c-220,0 -399,-180 -399,-401zm2126 1321l0 -3428c0,-221 179,-400 399,-400l0 0c221,0 400,179 400,400l0 3428c0,221 -179,400 -400,400l0 0c-220,0 -399,-179 -399,-400zm-1063 -714l0 -1937c0,-219 179,-400 399,-400l0 0c221,0 400,181 400,400l0 1937c0,220 -179,400 -400,400l0 0c-220,0 -399,-180 -399,-400zm3189 2499l0 -1148c106,66 217,125 333,177 149,69 305,126 466,170l0 801c0,220 -179,400 -400,400l0 0c-220,0 -399,-180 -399,-400zm0 -5850l0 -1149c0,-219 179,-399 399,-399l0 0c221,0 400,180 400,399l0 802c-160,43 -315,99 -463,168 -117,53 -229,112 -336,179zm-1063 4929l0 -1444c182,404 457,757 799,1030l0 414c0,221 -179,401 -400,401l0 0c-220,0 -399,-180 -399,-401zm0 -3712l0 -1444c0,-221 179,-401 399,-401l0 0c221,0 400,180 400,401l0 414c-342,273 -617,625 -799,1030zm8239 755l0 696c0,219 -179,399 -399,399l0 0c-221,0 -400,-180 -400,-399l0 -696c0,-221 179,-401 400,-401l0 0c220,0 399,180 399,401zm-2126 -1335l0 3428c0,221 -179,400 -399,400l0 0c-220,0 -400,-179 -400,-400l0 -3428c0,-221 180,-400 400,-400l0 0c220,0 399,179 399,400zm1063 714l0 1937c0,219 -179,400 -399,400l0 0c-220,0 -400,-181 -400,-400l0 -1937c0,-220 180,-400 400,-400l0 0c220,0 399,180 399,400zm-3188 -2499l0 1148c-244,-152 -513,-266 -800,-337l0 -811c0,-220 180,-400 400,-400l0 0c220,0 400,180 400,400zm0 5850l0 1148c0,220 -180,400 -400,400l0 0c-220,0 -400,-180 -400,-400l0 -811c287,-71 556,-185 800,-337zm1064 -4929l0 1444c-182,-404 -459,-757 -801,-1030l0 -414c0,-221 179,-401 400,-401l0 0c220,0 401,180 401,401zm0 3712l0 1444c0,221 -181,401 -401,401l0 0c-221,0 -400,-180 -400,-401l0 -414c342,-273 619,-626 801,-1030zm-2927 2992l0 -1364c131,18 264,28 400,28 136,0 269,-10 400,-28l0 1364c0,219 -179,400 -400,400l0 0c-220,0 -400,-181 -400,-400zm0 -6888l0 -1364c0,-219 180,-400 400,-400l0 0c221,0 400,181 400,400l0 1364c-131,-18 -264,-28 -400,-28 -136,0 -269,10 -400,28zm400 76c1484,0 2686,1202 2686,2686 0,1484 -1202,2686 -2686,2686 -1484,0 -2686,-1202 -2686,-2686 0,-1484 1202,-2686 2686,-2686zm0 1200c821,0 1486,665 1486,1486 0,821 -665,1486 -1486,1486 -821,0 -1486,-665 -1486,-1486 0,-821 665,-1486 1486,-1486z"/>
   <path class="fil1" d="M685 6339l5654 -5654c457,-457 1060,-685 1661,-685 601,0 1204,228 1661,685l5654 5654c457,457 685,1060 686,1661 -1,601 -229,1204 -686,1661l-5654 5654c-457,457 -1060,686 -1661,686 -601,0 -1204,-229 -1661,-686l-5654 -5654c-457,-457 -685,-1060 -685,-1661 0,-601 228,-1204 685,-1661zm6732 -4577l-5655 5655c-159,159 -239,372 -239,583 0,211 80,424 239,583l5655 5655c159,159 372,239 583,239 211,0 424,-80 583,-239l5655 -5655c159,-159 239,-372 239,-583 0,-211 -80,-424 -239,-583l-5655 -5655c-159,-159 -372,-239 -583,-239 -211,0 -424,80 -583,239z"/>
  </g>
 </g>
</svg>
