<?xml version="1.0" encoding="UTF-8"?>
<!DOCTYPE svg PUBLIC "-//W3C//DTD SVG 1.1//EN" "http://www.w3.org/Graphics/SVG/1.1/DTD/svg11.dtd">
<!-- Creator: CorelDRAW X7 -->
<svg xmlns="http://www.w3.org/2000/svg" xml:space="preserve" width="21.6746mm" height="21.6746mm" version="1.1" style="shape-rendering:geometricPrecision; text-rendering:geometricPrecision; image-rendering:optimizeQuality; fill-rule:evenodd; clip-rule:evenodd"
viewBox="0 0 2167 2167"
 xmlns:xlink="http://www.w3.org/1999/xlink">
 <defs>
  <style type="text/css">
   <![CDATA[
    .fil0 {fill:#CCCCCC}
    .fil1 {fill:#CCCCCC;fill-rule:nonzero}
   ]]>
  </style>
 </defs>
 <g id="Layer_x0020_1">
  <metadata id="CorelCorpID_0Corel-Layer"/>
  <g id="_339915520">
   <g>
    <path class="fil0" d="M1081 917l-73 126 -72 126 2 0c88,-89 197,-90 287,0l2 0 -73 -126 -73 -126z"/>
    <path class="fil0" d="M1084 720c201,0 364,163 364,364 0,201 -163,364 -364,364 -201,0 -364,-163 -364,-364 0,-201 163,-364 364,-364zm0 163c111,0 201,90 201,201 0,111 -90,201 -201,201 -111,0 -201,-90 -201,-201 0,-111 90,-201 201,-201z"/>
   </g>
   <path class="fil1" d="M93 859l766 -766c62,-62 143,-93 225,-93 81,0 163,31 225,93l766 766c62,62 92,143 92,225 0,81 -30,163 -92,225l-766 766c-62,62 -144,92 -225,92 -82,0 -163,-30 -225,-92l-766 -766c-62,-62 -93,-144 -93,-225 0,-82 31,-163 93,-225zm912 -620l-766 766c-22,21 -33,50 -33,79 0,28 11,57 33,79l766 766c21,21 50,32 79,32 28,0 57,-11 79,-32l766 -766c21,-22 32,-51 32,-79 0,-29 -11,-58 -32,-79l-766 -766c-22,-22 -51,-33 -79,-33 -29,0 -58,11 -79,33z"/>
   <g>
    <path class="fil0" d="M1030 710l0 -185c0,-30 24,-54 54,-54l0 0c30,0 54,24 54,54l0 185c-18,-3 -36,-4 -54,-4 -19,0 -37,1 -54,4z"/>
    <path class="fil0" d="M1030 1643l0 -185c17,2 35,4 54,4 18,0 36,-2 54,-4l0 185c0,29 -24,54 -54,54l0 0c-30,0 -54,-25 -54,-54z"/>
   </g>
   <g>
    <path class="fil0" d="M1426 1237l0 196c0,30 -24,54 -54,54l0 0c-30,0 -54,-24 -54,-54l0 -56c46,-37 83,-85 108,-140z"/>
    <path class="fil0" d="M1426 734l0 196c-25,-55 -62,-102 -108,-139l0 -57c0,-29 24,-54 54,-54l0 0c30,0 54,25 54,54z"/>
   </g>
   <g>
    <path class="fil0" d="M1282 1402l0 156c0,30 -24,54 -54,54l0 0c-30,0 -54,-24 -54,-54l0 -110c38,-10 75,-25 108,-46z"/>
    <path class="fil0" d="M1282 610l0 155c-33,-20 -70,-36 -108,-45l0 -110c0,-30 24,-54 54,-54l0 0c30,0 54,24 54,54z"/>
   </g>
   <rect class="fil0" transform="matrix(-4.48225E-015 0.271538 -0.445231 -1.89193E-014 1713.87 894.072)" width="1365" height="243" rx="122" ry="122"/>
   <rect class="fil0" transform="matrix(-4.81166E-015 0.419529 -0.445231 -2.72293E-014 1569.88 797.347)" width="1365" height="243" rx="122" ry="122"/>
   <rect class="fil0" transform="matrix(-3.11847E-015 0.148421 -0.445231 -1.48636E-014 1857.86 978.115)" width="1365" height="243" rx="122" ry="122"/>
   <path class="fil0" d="M742 1433l0 -196c24,55 62,103 108,140l0 56c0,30 -24,54 -54,54l0 0c-30,0 -54,-24 -54,-54zm0 -503l0 -196c0,-29 24,-54 54,-54l0 0c30,0 54,25 54,54l0 57c-46,37 -84,84 -108,139z"/>
   <g>
    <path class="fil0" d="M886 765l0 -155c0,-30 24,-54 54,-54l0 0c30,0 54,24 54,54l0 108c-22,6 -43,14 -63,23 -16,7 -31,15 -45,24z"/>
    <path class="fil0" d="M886 1558l0 -156c14,9 29,17 45,24 20,10 41,17 63,23l0 109c0,30 -24,54 -54,54l0 0c-30,0 -54,-24 -54,-54z"/>
   </g>
   <rect class="fil0" transform="matrix(4.48225E-015 -0.271538 0.445231 1.89193E-014 453.601 1273.39)" width="1365" height="243" rx="122" ry="122"/>
   <rect class="fil0" transform="matrix(4.81166E-015 -0.419529 0.445231 2.72293E-014 597.597 1370.11)" width="1365" height="243" rx="122" ry="122"/>
   <rect class="fil0" transform="matrix(3.11847E-015 -0.151232 0.445231 1.51451E-014 309.615 1191.27)" width="1365" height="243" rx="122" ry="122"/>
  </g>
 </g>
</svg>
