<?xml version="1.0" encoding="UTF-8"?>
<!DOCTYPE svg PUBLIC "-//W3C//DTD SVG 1.1//EN" "http://www.w3.org/Graphics/SVG/1.1/DTD/svg11.dtd">
<!-- Creator: CorelDRAW X7 -->
<svg xmlns="http://www.w3.org/2000/svg" xml:space="preserve" width="256px" height="256px" version="1.1" style="shape-rendering:geometricPrecision; text-rendering:geometricPrecision; image-rendering:optimizeQuality; fill-rule:evenodd; clip-rule:evenodd"
viewBox="0 0 256000 256000"
 xmlns:xlink="http://www.w3.org/1999/xlink">
 <defs>
  <style type="text/css">
   <![CDATA[
    .fil0 {fill:url(#id0)}
    .fil1 {fill:url(#id1);fill-rule:nonzero}
   ]]>
  </style>
  <linearGradient id="id0" gradientUnits="userSpaceOnUse" x1="128001" y1="55592.3" x2="128001" y2="200407">
   <stop offset="0" style="stop-opacity:1; stop-color:#1DA1CC"/>
   <stop offset="0.239216" style="stop-opacity:1; stop-color:#477EB6"/>
   <stop offset="0.458824" style="stop-opacity:1; stop-color:#825BA1"/>
   <stop offset="1" style="stop-opacity:1; stop-color:#FF311A"/>
  </linearGradient>
  <linearGradient id="id1" gradientUnits="userSpaceOnUse" xlink:href="#id0" x1="128000" y1="0" x2="128000" y2="256000">
  </linearGradient>
 </defs>
 <g id="Layer_x0020_1">
  <metadata id="CorelCorpID_0Corel-Layer"/>
  <g id="_452419648">
   <path class="fil0" d="M127702 108306l-8589 14875 -8587 14876 245 0c10453,-10453 23289,-10571 33860,0l248 0 -8588 -14876 -8589 -14875zm-91133 25995l0 -11586c0,-3520 2880,-6401 6400,-6401l1 0c3520,0 6399,2881 6399,6401l0 11586c0,3521 -2879,6401 -6399,6401l-1 0c-3520,0 -6400,-2880 -6400,-6401zm34014 21124l0 -54849c0,-3521 2879,-6401 6399,-6401l1 0c3520,0 6400,2880 6400,6401l0 54849c0,3521 -2880,6401 -6400,6401l-1 0c-3520,0 -6399,-2880 -6399,-6401zm-17008 -11425l0 -30986c0,-3520 2881,-6399 6400,-6399l0 0c3521,0 6401,2879 6401,6399l0 30986c0,3521 -2880,6401 -6401,6401l0 0c-3519,0 -6400,-2880 -6400,-6401zm51021 39983l0 -18381c1704,1063 3485,2013 5333,2841 2382,1117 4879,2027 7467,2712l0 12828c0,3520 -2877,6398 -6399,6398l-3 0c-3520,0 -6398,-2878 -6398,-6398zm0 -93585l0 -18381c0,-3520 2878,-6399 6398,-6399l3 0c3522,0 6399,2879 6399,6399l0 12830c-2565,678 -5042,1580 -7406,2682 -1869,834 -3672,1795 -5394,2869zm-17006 78863l0 -23113c2909,6465 7325,12106 12799,16477l0 6636c0,3521 -2877,6399 -6398,6399l-3 0c-3521,0 -6398,-2878 -6398,-6399zm0 -59409l0 -23112c0,-3522 2877,-6398 6398,-6398l3 0c3521,0 6398,2876 6398,6398l0 6635c-5474,4371 -9890,10011 -12799,16477zm131843 12074l0 11133c0,3521 -2880,6400 -6400,6400l0 0c-3521,0 -6401,-2879 -6401,-6400l0 -11133c0,-3520 2880,-6400 6401,-6400l0 0c3520,0 6400,2880 6400,6400zm-34014 -21350l0 54849c0,3521 -2879,6400 -6400,6400l0 0c-3521,0 -6400,-2879 -6400,-6400l0 -54849c0,-3521 2879,-6401 6400,-6401l0 0c3521,0 6400,2880 6400,6401zm17007 11424l0 30986c0,3520 -2879,6399 -6399,6399l-1 0c-3520,0 -6399,-2879 -6399,-6399l0 -30986c0,-3521 2879,-6401 6399,-6401l1 0c3520,0 6399,2880 6399,6401zm-51020 -39982l0 18381c-3902,-2434 -8211,-4276 -12800,-5405l0 -12976c0,-3521 2878,-6398 6398,-6398l3 0c3522,0 6399,2877 6399,6398zm0 93584l0 18381c0,3522 -2877,6398 -6399,6398l-3 0c-3520,0 -6398,-2876 -6398,-6398l0 -12977c4589,-1129 8898,-2970 12800,-5404zm17007 -78862l0 23117c-2909,-6467 -7325,-12110 -12801,-16482l0 -6635c0,-3520 2878,-6398 6399,-6398l2 0c3523,0 6400,2878 6400,6398zm0 59402l0 23119c0,3521 -2877,6399 -6400,6399l-2 0c-3521,0 -6399,-2878 -6399,-6399l0 -6636c5476,-4371 9892,-10015 12801,-16483zm-46810 47866l0 -21830c2090,301 4226,458 6398,458 2175,0 4309,-157 6399,-458l0 21830c0,3521 -2874,6400 -6399,6400l0 0c-3523,0 -6398,-2879 -6398,-6400zm0 -110185l0 -21833c0,-3521 2875,-6398 6398,-6398l0 0c3525,0 6399,2877 6399,6398l0 21833c-2090,-301 -4224,-458 -6399,-458 -2172,0 -4308,157 -6398,458zm6397 1208c23730,0 42969,19239 42969,42969 0,23730 -19239,42967 -42969,42967 -23728,0 -42967,-19237 -42967,-42967 0,-23730 19239,-42969 42967,-42969zm0 19202c13127,0 23767,10640 23767,23767 0,13127 -10640,23767 -23767,23767 -13126,0 -23766,-10640 -23766,-23767 0,-13127 10640,-23767 23766,-23767z"/>
   <path class="fil1" d="M10971 101436l90464 -90465c7314,-7314 16944,-10971 26565,-10971 9621,0 19251,3657 26565,10971l90464 90465c7314,7313 10971,16943 10972,26564 -1,9621 -3658,19251 -10972,26565l-90464 90464c-7314,7314 -16944,10971 -26565,10972 -9621,-1 -19251,-3658 -26565,-10972l-90464 -90464c-7314,-7314 -10971,-16944 -10971,-26565 0,-9621 3657,-19251 10971,-26564zm107696 -73234l-90465 90465c-2558,2557 -3836,5942 -3836,9333 0,3392 1278,6776 3836,9334l90465 90464c2557,2558 5942,3837 9333,3837 3392,0 6776,-1279 9334,-3837l90464 -90464c2558,-2558 3837,-5942 3837,-9334 0,-3391 -1279,-6776 -3837,-9333l-90464 -90465c-2558,-2558 -5942,-3836 -9334,-3836 -3391,0 -6776,1278 -9333,3836z"/>
  </g>
 </g>
</svg>
