<?xml version="1.0" encoding="UTF-8"?>
<!DOCTYPE svg PUBLIC "-//W3C//DTD SVG 1.1//EN" "http://www.w3.org/Graphics/SVG/1.1/DTD/svg11.dtd">
<!-- Creator: CorelDRAW X7 -->
<svg xmlns="http://www.w3.org/2000/svg" xml:space="preserve" width="3000px" height="608px" version="1.1" style="shape-rendering:geometricPrecision; text-rendering:geometricPrecision; image-rendering:optimizeQuality; fill-rule:evenodd; clip-rule:evenodd"
viewBox="0 0 3000000 607998"
 xmlns:xlink="http://www.w3.org/1999/xlink">
 <defs>
  <style type="text/css">
   <![CDATA[
    .fil0 {fill:url(#id0)}
    .fil2 {fill:url(#id1);fill-rule:nonzero}
    .fil1 {fill:url(#id2);fill-rule:nonzero}
   ]]>
  </style>
  <linearGradient id="id0" gradientUnits="userSpaceOnUse" x1="304052" y1="132001" x2="304052" y2="475993">
   <stop offset="0" style="stop-opacity:1; stop-color:#1DA1CC"/>
   <stop offset="0.239216" style="stop-opacity:1; stop-color:#477EB6"/>
   <stop offset="0.458824" style="stop-opacity:1; stop-color:#825BA1"/>
   <stop offset="1" style="stop-opacity:1; stop-color:#FF311A"/>
  </linearGradient>
  <linearGradient id="id1" gradientUnits="userSpaceOnUse" x1="3e+006" y1="303998" x2="762585" y2="303998">
   <stop offset="0" style="stop-opacity:1; stop-color:#DF3633"/>
   <stop offset="0.458824" style="stop-opacity:1; stop-color:#B54392"/>
   <stop offset="1" style="stop-opacity:1; stop-color:#0069B2"/>
  </linearGradient>
  <linearGradient id="id2" gradientUnits="userSpaceOnUse" xlink:href="#id0" x1="304051" y1="-50.7874" x2="304051" y2="608049">
  </linearGradient>
 </defs>
 <g id="Layer_x0020_1">
  <metadata id="CorelCorpID_0Corel-Layer"/>
  <g id="_196678072">
   <path class="fil0" d="M303343 257218l-20403 35334 -20400 35335 585 0c24829,-24829 55321,-25109 80431,0l588 0 -20399 -35335 -20402 -35334zm-216476 61748l0 -27523c0,-8361 6839,-15202 15202,-15202l1 0c8361,0 15202,6841 15202,15202l0 27523c0,8364 -6841,15202 -15202,15202l-1 0c-8363,0 -15202,-6838 -15202,-15202zm80795 50177l0 -130289c0,-8363 6840,-15203 15202,-15203l1 0c8361,0 15202,6840 15202,15203l0 130289c0,8363 -6841,15203 -15202,15203l-1 0c-8362,0 -15202,-6840 -15202,-15203zm-40399 -27137l0 -73604c0,-8361 6841,-15201 15202,-15201l1 0c8362,0 15202,6840 15202,15201l0 73604c0,8363 -6840,15203 -15202,15203l-1 0c-8361,0 -15202,-6840 -15202,-15203zm121194 94974l0 -43662c4045,2525 8277,4783 12667,6750 5660,2650 11591,4813 17738,6441l0 30471c0,8359 -6835,15199 -15200,15199l-6 0c-8364,0 -15199,-6840 -15199,-15199zm0 -222300l0 -43665c0,-8359 6835,-15199 15199,-15199l6 0c8365,0 15200,6840 15200,15199l0 30478c-6093,1612 -11977,3754 -17590,6372 -4442,1980 -8723,4262 -12815,6815zm-40396 187328l0 -54903c6910,15359 17400,28757 30404,39143l0 15760c0,8364 -6835,15200 -15200,15200l-7 0c-8364,0 -15197,-6836 -15197,-15200zm0 -141118l0 -54899c0,-8368 6833,-15197 15197,-15197l7 0c8365,0 15200,6829 15200,15197l0 15759c-13004,10383 -23494,23779 -30404,39140zm313177 28680l0 26446c0,8362 -6840,15202 -15202,15202l-1 0c-8362,0 -15202,-6840 -15202,-15202l0 -26446c0,-8363 6840,-15202 15202,-15202l1 0c8362,0 15202,6839 15202,15202zm-80795 -50716l0 130289c0,8363 -6840,15202 -15202,15202l-2 0c-8362,0 -15202,-6839 -15202,-15202l0 -130289c0,-8363 6840,-15203 15202,-15203l2 0c8362,0 15202,6840 15202,15203zm40399 27136l0 73605c0,8361 -6841,15201 -15202,15201l-1 0c-8362,0 -15202,-6840 -15202,-15201l0 -73605c0,-8362 6840,-15202 15202,-15202l1 0c8361,0 15202,6840 15202,15202zm-121194 -94970l0 43662c-9268,-5783 -19504,-10159 -30404,-12841l0 -30821c0,-8364 6834,-15200 15197,-15200l7 0c8365,0 15200,6836 15200,15200zm0 222295l0 43665c0,8366 -6835,15199 -15200,15199l-7 0c-8363,0 -15197,-6833 -15197,-15199l0 -30824c10900,-2682 21136,-7058 30404,-12841zm40397 -187324l0 54911c-6909,-15361 -17400,-28767 -30405,-39152l0 -15759c0,-8363 6835,-15197 15200,-15197l6 0c8364,0 15199,6834 15199,15197zm0 141102l0 54915c0,8364 -6835,15200 -15199,15200l-6 0c-8365,0 -15200,-6836 -15200,-15200l0 -15760c13005,-10386 23496,-23791 30405,-39155zm-111191 113701l0 -51855c4964,715 10038,1088 15200,1088 5163,0 10235,-373 15199,-1088l0 51855c0,8363 -6829,15200 -15199,15200l0 0c-8371,0 -15200,-6837 -15200,-15200zm0 -261733l0 -51860c0,-8364 6829,-15200 15200,-15200l0 0c8370,0 15199,6836 15199,15200l0 51860c-4964,-715 -10036,-1088 -15199,-1088 -5162,0 -10236,373 -15200,1088zm15197 2871c56366,0 102066,45700 102066,102066 0,56366 -45700,102065 -102066,102065 -56366,0 -102065,-45699 -102065,-102065 0,-56366 45699,-102066 102065,-102066zm0 45609c31181,0 56457,25276 56457,56457 0,31181 -25276,56457 -56457,56457 -31180,0 -56455,-25276 -56455,-56457 0,-31181 25275,-56457 56455,-56457z"/>
   <path class="fil1" d="M26061 240896l214887 -214887c17374,-17374 40248,-26061 63102,-26061 22856,0 45728,8687 63103,26061l214886 214887c17375,17374 26062,40248 26062,63102 0,22856 -8687,45729 -26062,63103l-214886 214887c-17374,17373 -40247,26061 -63103,26061 -22854,0 -45728,-8687 -63102,-26061l-214887 -214887c-17374,-17374 -26061,-40247 -26061,-63103 0,-22854 8687,-45728 26061,-63102zm255819 -173956l-214888 214888c-6075,6075 -9113,14115 -9113,22170 0,8056 3038,16096 9113,22172l214888 214887c6075,6076 14114,9113 22170,9113 8056,0 16096,-3037 22172,-9113l214886 -214887c6077,-6076 9114,-14116 9114,-22172 0,-8055 -3037,-16095 -9114,-22170l-214886 -214888c-6076,-6075 -14116,-9113 -22172,-9113 -8056,0 -16095,3038 -22170,9113z"/>
   <path class="fil2" d="M852940 267787l-46372 0 0 29401 46372 0 0 -29401zm-38245 -68129c-33945,0 -52110,21037 -52110,52829l0 113065 31552 0 0 -113781c0,-15300 5736,-21037 20796,-21037l50438 0 0 -31076 -50676 0zm61911 94660l0 71234 31554 0 0 -71951c0,-13864 10037,-23426 23905,-23426 20794,0 23185,16495 23185,23426l0 6217 31553 0 0 -5500c0,-32270 -20319,-54978 -54738,-54978 -33468,0 -55459,23666 -55459,54978zm171392 -4302l0 26295 77688 0c5258,-49244 -25577,-76971 -61672,-76971 -34901,0 -63345,29162 -63345,65018 0,35378 28444,64302 63345,64302 30359,0 52111,-17210 59282,-42311l-33226 0c-5738,9324 -16016,13387 -26535,13387 -17689,0 -32270,-15059 -32270,-35378 0,-20556 14581,-36333 32270,-36333 14104,0 26295,8127 30597,21991l-46134 0zm140315 0l0 26295 77688 0c5260,-49244 -25575,-76971 -61672,-76971 -34899,0 -63344,29162 -63344,65018 0,35378 28445,64302 63344,64302 30360,0 52112,-17210 59282,-42311l-33226 0c-5737,9324 -16016,13387 -26533,13387 -17691,0 -32271,-15059 -32271,-35378 0,-20556 14580,-36333 32271,-36333 14102,0 26294,8127 30596,21991l-46135 0zm87012 75536c17449,1194 31554,-2152 41831,-11950 14105,-13148 15777,-33467 15777,-49722 0,-17689 3348,-22230 6216,-25337 4540,-4543 10996,-6216 19839,-5258l0 -30599c-17689,-1433 -31314,2629 -41591,12670 -14343,13625 -16016,32270 -16016,48524 0,17929 -3110,23666 -6216,26533 -4540,4543 -11713,5260 -19840,4543l0 30596zm155376 -126212c-34183,0 -61911,27966 -61911,64780 0,36812 27728,64301 61911,64301 34181,0 62150,-27489 62150,-64301 0,-36814 -27969,-64780 -62150,-64780zm0 100156c-16735,0 -30359,-14341 -30359,-35138 0,-21275 13624,-36094 30359,-36094 16733,0 30358,14819 30358,36094 0,20797 -13625,35138 -30358,35138zm192906 -26053l0 -70996 -31554 0 0 71952c0,13624 -10038,23426 -23905,23426 -20794,0 -23185,-16493 -23185,-23426l0 -71952 -31554 0 0 70996c0,32270 20320,54978 54739,54978 33467,0 55459,-23665 55459,-54978zm25578 -19125l0 71234 31553 0 0 -71951c0,-13864 10038,-23426 23905,-23426 20794,0 23186,16495 23186,23426l0 71951 31553 0 0 -71234c0,-32270 -20320,-54978 -54739,-54978 -33467,0 -55458,23666 -55458,54978zm212984 -51871l-21991 0c-34422,0 -60238,27728 -60238,62150 0,34660 26054,63824 63344,63824 37052,0 63107,-29164 63107,-64780l0 -115933 -31553 0 0 115933c0,18885 -14102,34184 -31554,34184 -17449,0 -31551,-14822 -31551,-33228 0,-18166 14102,-31793 32270,-31793l18166 0 0 -30357zm241430 25340l-54501 0 0 29401 54501 0 0 -29401zm-67171 -16016c0,-15300 5976,-21037 21036,-21037l58324 0 0 -31076 -58563 0c-34183,0 -52350,21037 -52350,52829l0 60237c0,31793 18167,52828 52350,52828l58563 0 0 -31076 -58324 0c-15060,0 -21036,-5975 -21036,-21272l0 -61433zm187408 52109c10518,-9083 16971,-22468 16971,-39203l0 -22230 -31554 0 0 23905c0,13863 -8604,23426 -21035,23426 -12190,0 -20795,-9563 -20795,-23426l0 -23905 -31554 0 0 22230c0,16973 5737,30360 15777,39203 -10040,8844 -15777,22231 -15777,39204l0 22468 31554 0 0 -24143c0,-13863 8605,-23426 20795,-23426 12431,0 21035,9563 21035,23426l0 24143 31554 0 0 -22468c0,-16496 -6453,-30121 -16971,-39204zm85577 61672l21991 0c34422,0 59998,-27727 59998,-62149 0,-34901 -25815,-64063 -63106,-64063 -37051,0 -63107,29162 -63107,65018l0 115934 31553 0 0 -115934c0,-18884 14104,-34422 31554,-34422 17449,0 31552,15060 31552,33467 0,18167 -14103,31553 -32271,31553l-18164 0 0 30596zm101591 -51632c0,33704 19124,55217 55218,51394l0 -28686c-15539,958 -23427,-5259 -23427,-22708l0 -126212 -31791 0 0 126212zm126691 -74580c-34183,0 -61911,27966 -61911,64780 0,36812 27728,64301 61911,64301 34181,0 62150,-27489 62150,-64301 0,-36814 -27969,-64780 -62150,-64780zm0 100156c-16735,0 -30360,-14341 -30360,-35138 0,-21275 13625,-36094 30360,-36094 16733,0 30357,14819 30357,36094 0,20797 -13624,35138 -30357,35138zm82708 -45178l0 71234 31554 0 0 -71951c0,-13864 10039,-23426 23905,-23426 20794,0 23185,16495 23185,23426l0 6217 31553 0 0 -5500c0,-32270 -20319,-54978 -54738,-54978 -33468,0 -55459,23666 -55459,54978zm171392 -4302l0 26295 77688 0c5259,-49244 -25576,-76971 -61672,-76971 -34900,0 -63345,29162 -63345,65018 0,35378 28445,64302 63345,64302 30359,0 52111,-17210 59282,-42311l-33226 0c-5736,9324 -16015,13387 -26534,13387 -17690,0 -32270,-15059 -32270,-35378 0,-20556 14580,-36333 32270,-36333 14103,0 26295,8127 30596,21991l-46134 0zm98007 4302l0 71234 31554 0 0 -71951c0,-13864 10038,-23426 23905,-23426 20794,0 23185,16495 23185,23426l0 6217 31554 0 0 -5500c0,-32270 -20320,-54978 -54739,-54978 -33467,0 -55459,23666 -55459,54978z"/>
  </g>
 </g>
</svg>
