<?xml version="1.0" encoding="UTF-8"?>
<!DOCTYPE svg PUBLIC "-//W3C//DTD SVG 1.1//EN" "http://www.w3.org/Graphics/SVG/1.1/DTD/svg11.dtd">
<!-- Creator: CorelDRAW X7 -->
<svg xmlns="http://www.w3.org/2000/svg" xml:space="preserve" width="254mm" height="51.4772mm" version="1.1" style="shape-rendering:geometricPrecision; text-rendering:geometricPrecision; image-rendering:optimizeQuality; fill-rule:evenodd; clip-rule:evenodd"
viewBox="0 0 25400 5148"
 xmlns:xlink="http://www.w3.org/1999/xlink">
 <defs>
  <style type="text/css">
   <![CDATA[
    .fil0 {fill:white}
    .fil1 {fill:white;fill-rule:nonzero}
   ]]>
  </style>
 </defs>
 <g id="Layer_x0020_1">
  <metadata id="CorelCorpID_0Corel-Layer"/>
  <g id="_340705032">
   <g>
    <g>
     <path class="fil0" d="M2568 2178l-172 299 -173 299 5 0c210,-210 468,-212 681,0l5 0 -173 -299 -173 -299z"/>
     <path class="fil0" d="M2574 1710c478,0 864,387 864,864 0,477 -386,864 -864,864 -477,0 -864,-387 -864,-864 0,-477 387,-864 864,-864zm0 386c264,0 478,214 478,478 0,264 -214,478 -478,478 -264,0 -478,-214 -478,-478 0,-264 214,-478 478,-478z"/>
    </g>
    <path class="fil1" d="M221 2040l1819 -1820c147,-147 341,-220 534,-220 194,0 387,73 535,220l1819 1820c147,147 221,340 221,534 0,193 -74,387 -221,534l-1819 1820c-148,147 -341,220 -535,220 -193,0 -387,-73 -534,-220l-1819 -1820c-147,-147 -221,-341 -221,-534 0,-194 74,-387 221,-534zm2166 -1473l-1820 1819c-51,52 -77,120 -77,188 0,68 26,136 77,188l1820 1819c51,51 119,77 187,77 69,0 137,-26 188,-77l1819 -1819c52,-52 78,-120 78,-188 0,-68 -26,-136 -78,-188l-1819 -1819c-51,-52 -119,-77 -188,-77 -68,0 -136,25 -187,77z"/>
    <g>
     <path class="fil0" d="M2446 1685l0 -439c0,-71 57,-128 128,-128l0 0c71,0 129,57 129,128l0 439c-42,-6 -85,-9 -129,-9 -43,0 -86,3 -128,9z"/>
     <path class="fil0" d="M2446 3901l0 -439c42,6 85,10 128,10 44,0 87,-4 129,-10l0 439c0,71 -58,129 -129,129l0 0c-71,0 -128,-58 -128,-129z"/>
    </g>
    <g>
     <path class="fil0" d="M3387 2939l0 465c0,70 -58,128 -129,128l0 0c-71,0 -128,-58 -128,-128l0 -134c110,-88 199,-201 257,-331z"/>
     <path class="fil0" d="M3387 1744l0 465c-58,-130 -147,-244 -257,-332l0 -133c0,-71 57,-129 128,-129l0 0c71,0 129,58 129,129z"/>
    </g>
    <g>
     <path class="fil0" d="M3045 3330l0 370c0,71 -58,128 -129,128l0 0c-71,0 -128,-57 -128,-128l0 -261c92,-23 179,-60 257,-109z"/>
     <path class="fil0" d="M3045 1448l0 370c-78,-49 -165,-86 -257,-109l0 -261c0,-71 57,-129 128,-129l0 0c71,0 129,58 129,129z"/>
    </g>
    <path class="fil0" d="M4071 2252l0 623c0,71 -58,129 -129,129l0 0c-70,0 -128,-58 -128,-129l0 -623c0,-71 58,-129 128,-129l0 0c71,0 129,58 129,129z"/>
    <path class="fil0" d="M3729 2022l0 1103c0,71 -58,129 -129,129l0 0c-70,0 -128,-58 -128,-129l0 -1103c0,-71 58,-128 128,-128l0 0c71,0 129,57 129,128z"/>
    <path class="fil0" d="M4413 2452l0 224c0,70 -58,128 -129,128l0 0c-70,0 -128,-58 -128,-128l0 -224c0,-71 58,-129 128,-129l0 0c71,0 129,58 129,129z"/>
    <path class="fil0" d="M1762 3404l0 -465c58,130 147,243 257,331l0 134c0,70 -58,128 -129,128l0 0c-71,0 -128,-58 -128,-128zm0 -1195l0 -465c0,-71 57,-129 128,-129l0 0c71,0 129,58 129,129l0 133c-110,88 -199,202 -257,332z"/>
    <g>
     <path class="fil0" d="M2104 1818l0 -370c0,-71 57,-129 128,-129l0 0c71,0 129,58 129,129l0 258c-52,14 -101,32 -149,54 -38,17 -74,36 -108,58z"/>
     <path class="fil0" d="M2104 3700l0 -370c34,21 70,41 107,57 48,23 98,41 150,55l0 258c0,71 -58,128 -129,128l0 0c-71,0 -128,-57 -128,-128z"/>
    </g>
    <path class="fil0" d="M1077 2896l0 -624c0,-70 58,-128 129,-128l0 0c71,0 129,58 129,128l0 624c0,70 -58,128 -129,128l0 0c-71,0 -129,-58 -129,-128z"/>
    <path class="fil0" d="M1420 3125l0 -1103c0,-71 57,-128 128,-128l0 0c71,0 129,57 129,128l0 1103c0,71 -58,129 -129,129l0 0c-71,0 -128,-58 -128,-129z"/>
    <path class="fil0" d="M735 2701l0 -233c0,-71 58,-129 129,-129l0 0c71,0 129,58 129,129l0 233c0,70 -58,128 -129,128l0 0c-71,0 -129,-58 -129,-128z"/>
   </g>
   <path class="fil1" d="M7222 2267l-393 0 0 249 393 0 0 -249zm-324 -577c-288,0 -441,179 -441,448l0 957 267 0 0 -963c0,-130 48,-178 176,-178l427 0 0 -264 -429 0zm524 802l0 603 267 0 0 -609c0,-118 85,-199 202,-199 177,0 197,140 197,199l0 52 267 0 0 -46c0,-273 -172,-466 -464,-466 -283,0 -469,201 -469,466zm1451 -37l0 223 658 0c44,-417 -217,-652 -522,-652 -296,0 -537,247 -537,551 0,299 241,544 537,544 257,0 441,-145 502,-358l-282 0c-48,79 -135,113 -224,113 -150,0 -274,-127 -274,-299 0,-174 124,-308 274,-308 119,0 222,69 259,186l-391 0zm1188 0l0 223 658 0c44,-417 -217,-652 -522,-652 -296,0 -537,247 -537,551 0,299 241,544 537,544 257,0 441,-145 502,-358l-282 0c-48,79 -135,113 -224,113 -150,0 -274,-127 -274,-299 0,-174 124,-308 274,-308 119,0 222,69 259,186l-391 0zm737 640c147,10 267,-18 354,-101 119,-111 134,-284 134,-421 0,-150 28,-188 52,-215 39,-38 93,-52 168,-44l0 -259c-150,-12 -265,22 -352,107 -121,115 -136,273 -136,411 0,152 -26,200 -52,225 -39,38 -99,44 -168,38l0 259zm1315 -1069c-289,0 -524,237 -524,549 0,312 235,544 524,544 290,0 526,-232 526,-544 0,-312 -236,-549 -526,-549zm0 848c-141,0 -257,-121 -257,-297 0,-180 116,-306 257,-306 142,0 257,126 257,306 0,176 -115,297 -257,297zm1634 -220l0 -601 -268 0 0 609c0,115 -85,198 -202,198 -176,0 -196,-139 -196,-198l0 -609 -267 0 0 601c0,273 172,465 463,465 283,0 470,-200 470,-465zm216 -162l0 603 267 0 0 -609c0,-118 85,-199 203,-199 176,0 196,140 196,199l0 609 267 0 0 -603c0,-273 -172,-466 -463,-466 -284,0 -470,201 -470,466zm1803 -439l-186 0c-291,0 -510,234 -510,526 0,293 221,540 536,540 314,0 535,-247 535,-548l0 -982 -267 0 0 982c0,160 -120,289 -268,289 -147,0 -267,-125 -267,-281 0,-154 120,-269 274,-269l153 0 0 -257zm2044 214l-461 0 0 249 461 0 0 -249zm-568 -135c0,-130 50,-178 178,-178l494 0 0 -264 -496 0c-290,0 -443,179 -443,448l0 510c0,269 153,447 443,447l496 0 0 -263 -494 0c-128,0 -178,-51 -178,-180l0 -520zm1586 441c90,-77 144,-190 144,-332l0 -188 -267 0 0 202c0,117 -73,198 -178,198 -103,0 -176,-81 -176,-198l0 -202 -267 0 0 188c0,144 48,257 133,332 -85,75 -133,188 -133,332l0 190 267 0 0 -204c0,-118 73,-199 176,-199 105,0 178,81 178,199l0 204 267 0 0 -190c0,-140 -54,-255 -144,-332zm725 522l186 0c292,0 508,-235 508,-526 0,-296 -218,-543 -534,-543 -314,0 -534,247 -534,551l0 981 267 0 0 -981c0,-160 119,-292 267,-292 148,0 267,128 267,284 0,154 -119,267 -273,267l-154 0 0 259zm860 -437c0,285 162,467 468,435l0 -243c-132,8 -199,-44 -199,-192l0 -1069 -269 0 0 1069zm1073 -632c-290,0 -524,237 -524,549 0,312 234,544 524,544 289,0 526,-232 526,-544 0,-312 -237,-549 -526,-549zm0 848c-142,0 -257,-121 -257,-297 0,-180 115,-306 257,-306 141,0 257,126 257,306 0,176 -116,297 -257,297zm700 -382l0 603 267 0 0 -609c0,-118 85,-199 203,-199 176,0 196,140 196,199l0 52 267 0 0 -46c0,-273 -172,-466 -463,-466 -284,0 -470,201 -470,466zm1451 -37l0 223 658 0c44,-417 -217,-652 -522,-652 -296,0 -537,247 -537,551 0,299 241,544 537,544 257,0 441,-145 502,-358l-282 0c-48,79 -135,113 -224,113 -150,0 -273,-127 -273,-299 0,-174 123,-308 273,-308 119,0 222,69 259,186l-391 0zm830 37l0 603 267 0 0 -609c0,-118 85,-199 203,-199 176,0 196,140 196,199l0 52 267 0 0 -46c0,-273 -172,-466 -463,-466 -284,0 -470,201 -470,466z"/>
  </g>
 </g>
</svg>
