<?xml version="1.0" encoding="UTF-8"?>
<!DOCTYPE svg PUBLIC "-//W3C//DTD SVG 1.1//EN" "http://www.w3.org/Graphics/SVG/1.1/DTD/svg11.dtd">
<!-- Creator: CorelDRAW X7 -->
<svg xmlns="http://www.w3.org/2000/svg" xml:space="preserve" width="48px" height="48px" version="1.1" style="shape-rendering:geometricPrecision; text-rendering:geometricPrecision; image-rendering:optimizeQuality; fill-rule:evenodd; clip-rule:evenodd"
viewBox="0 0 48000 48000"
 xmlns:xlink="http://www.w3.org/1999/xlink">
 <defs>
  <style type="text/css">
   <![CDATA[
    .fil0 {fill:url(#id0)}
    .fil1 {fill:url(#id1);fill-rule:nonzero}
   ]]>
  </style>
  <linearGradient id="id0" gradientUnits="userSpaceOnUse" x1="24000" y1="10422.6" x2="24000" y2="37577.4">
   <stop offset="0" style="stop-opacity:1; stop-color:#1DA1CC"/>
   <stop offset="0.239216" style="stop-opacity:1; stop-color:#477EB6"/>
   <stop offset="0.458824" style="stop-opacity:1; stop-color:#825BA1"/>
   <stop offset="1" style="stop-opacity:1; stop-color:#FF311A"/>
  </linearGradient>
  <linearGradient id="id1" gradientUnits="userSpaceOnUse" xlink:href="#id0" x1="24000" y1="-1.18116" x2="24000" y2="48001.2">
  </linearGradient>
 </defs>
 <g id="Layer_x0020_1">
  <metadata id="CorelCorpID_0Corel-Layer"/>
  <g id="_454288936">
   <path class="fil0" d="M23944 20308l-1611 2788 -1610 2790 47 0c1959,-1960 4366,-1983 6348,0l46 0 -1610 -2790 -1610 -2788zm-17089 4873l0 -2172c0,-660 541,-1200 1201,-1200l0 0c660,0 1200,540 1200,1200l0 2172c0,660 -540,1200 -1200,1200l0 0c-660,0 -1201,-540 -1201,-1200zm6379 3962l0 -10286c0,-660 540,-1200 1200,-1200l0 0c660,0 1200,540 1200,1200l0 10286c0,660 -540,1200 -1200,1200l0 0c-660,0 -1200,-540 -1200,-1200zm-3189 -2143l0 -5810c0,-660 539,-1200 1200,-1200l0 0c660,0 1200,540 1200,1200l0 5810c0,660 -540,1200 -1200,1200l0 0c-661,0 -1200,-540 -1200,-1200zm9567 7497l0 -3447c319,200 653,378 999,533 447,210 916,380 1401,509l0 2405c0,660 -540,1200 -1200,1200l-1 0c-660,0 -1199,-540 -1199,-1200zm0 -17547l0 -3447c0,-660 539,-1200 1199,-1200l1 0c660,0 1200,540 1200,1200l0 2405c-482,127 -946,296 -1389,503 -351,157 -689,337 -1011,539zm-3189 14787l0 -4334c546,1212 1374,2270 2400,3090l0 1244c0,660 -540,1200 -1200,1200l0 0c-660,0 -1200,-540 -1200,-1200zm0 -11140l0 -4334c0,-660 540,-1200 1200,-1200l0 0c660,0 1200,540 1200,1200l0 1244c-1026,820 -1854,1877 -2400,3090zm24722 2264l0 2087c0,661 -540,1201 -1201,1201l0 0c-660,0 -1200,-540 -1200,-1201l0 -2087c0,-660 540,-1200 1200,-1200l0 0c661,0 1201,540 1201,1200zm-6379 -4004l0 10286c0,660 -540,1200 -1200,1200l0 0c-660,0 -1200,-540 -1200,-1200l0 -10286c0,-660 540,-1200 1200,-1200l0 0c660,0 1200,540 1200,1200zm3189 2143l0 5810c0,660 -539,1200 -1200,1200l0 0c-660,0 -1200,-540 -1200,-1200l0 -5810c0,-660 540,-1200 1200,-1200l0 0c661,0 1200,540 1200,1200zm-9566 -7497l0 3447c-732,-457 -1540,-802 -2400,-1014l0 -2433c0,-660 539,-1200 1199,-1200l1 0c660,0 1200,540 1200,1200zm0 17547l0 3447c0,660 -540,1200 -1200,1200l-1 0c-660,0 -1199,-540 -1199,-1200l0 -2433c860,-212 1668,-557 2400,-1014zm3188 -14787l0 4335c-544,-1213 -1372,-2271 -2400,-3091l0 -1244c0,-660 540,-1200 1200,-1200l1 0c661,0 1199,540 1199,1200zm0 11139l0 4335c0,660 -538,1200 -1199,1200l-1 0c-660,0 -1200,-540 -1200,-1200l0 -1244c1028,-820 1856,-1878 2400,-3091zm-8777 8975l0 -4094c392,57 792,87 1200,87 408,0 808,-30 1200,-87l0 4094c0,661 -539,1200 -1200,1200l0 0c-660,0 -1200,-539 -1200,-1200zm0 -20660l0 -4094c0,-661 540,-1200 1200,-1200l0 0c661,0 1200,539 1200,1200l0 4094c-392,-57 -792,-87 -1200,-87 -408,0 -808,30 -1200,87zm1200 226c4449,0 8057,3608 8057,8057 0,4449 -3608,8057 -8057,8057 -4449,0 -8057,-3608 -8057,-8057 0,-4449 3608,-8057 8057,-8057zm0 3600c2462,0 4457,1995 4457,4457 0,2462 -1995,4457 -4457,4457 -2462,0 -4457,-1995 -4457,-4457 0,-2462 1995,-4457 4457,-4457z"/>
   <path class="fil1" d="M2056 19019l16963 -16963c1371,-1371 3177,-2057 4981,-2057 1804,0 3610,686 4981,2057l16963 16963c1371,1371 2057,3177 2057,4981 0,1804 -686,3610 -2057,4981l-16963 16963c-1371,1371 -3177,2057 -4981,2057 -1804,0 -3610,-686 -4981,-2057l-16963 -16963c-1371,-1371 -2057,-3177 -2057,-4981 0,-1804 686,-3610 2057,-4981zm20194 -13732l-16963 16963c-480,479 -719,1115 -719,1750 0,635 239,1271 719,1750l16963 16963c479,480 1115,719 1750,719 635,0 1271,-239 1750,-719l16963 -16963c480,-479 719,-1115 719,-1750 0,-635 -239,-1271 -719,-1750l-16963 -16963c-479,-480 -1115,-719 -1750,-719 -635,0 -1271,239 -1750,719z"/>
  </g>
 </g>
</svg>
