<?xml version="1.0" encoding="UTF-8"?>
<!DOCTYPE svg PUBLIC "-//W3C//DTD SVG 1.1//EN" "http://www.w3.org/Graphics/SVG/1.1/DTD/svg11.dtd">
<!-- Creator: CorelDRAW X7 -->
<svg xmlns="http://www.w3.org/2000/svg" xml:space="preserve" width="43.3492mm" height="43.3492mm" version="1.1" style="shape-rendering:geometricPrecision; text-rendering:geometricPrecision; image-rendering:optimizeQuality; fill-rule:evenodd; clip-rule:evenodd"
viewBox="0 0 4335 4335"
 xmlns:xlink="http://www.w3.org/1999/xlink">
 <defs>
  <style type="text/css">
   <![CDATA[
    .fil0 {fill:#CCCCCC}
    .fil1 {fill:#CCCCCC;fill-rule:nonzero}
   ]]>
  </style>
 </defs>
 <g id="Layer_x0020_1">
  <metadata id="CorelCorpID_0Corel-Layer"/>
  <g id="_337622160">
   <g>
    <path class="fil0" d="M2162 1834l-145 252 -145 252 4 0c177,-177 394,-179 573,0l4 0 -145 -252 -146 -252z"/>
    <path class="fil0" d="M2167 1440c402,0 728,326 728,727 0,402 -326,728 -728,728 -401,0 -727,-326 -727,-728 0,-401 326,-727 727,-727zm0 325c223,0 403,180 403,402 0,223 -180,403 -403,403 -222,0 -402,-180 -402,-403 0,-222 180,-402 402,-402z"/>
   </g>
   <path class="fil1" d="M186 1718l1532 -1532c123,-124 287,-186 449,-186 163,0 326,62 450,186l1532 1532c124,123 186,287 186,449 0,163 -62,326 -186,450l-1532 1532c-124,124 -287,186 -450,186 -162,0 -326,-62 -449,-186l-1532 -1532c-124,-124 -186,-287 -186,-450 0,-162 62,-326 186,-449zm1823 -1240l-1531 1531c-44,44 -65,101 -65,158 0,58 21,115 65,159l1531 1531c44,44 101,65 158,65 58,0 115,-21 159,-65l1531 -1531c44,-44 65,-101 65,-159 0,-57 -21,-114 -65,-158l-1531 -1531c-44,-44 -101,-65 -159,-65 -57,0 -114,21 -158,65z"/>
   <g>
    <path class="fil0" d="M2059 1419l0 -369c0,-60 49,-109 108,-109l0 0c60,0 109,49 109,109l0 369c-36,-5 -72,-7 -109,-7 -36,0 -72,2 -108,7z"/>
    <path class="fil0" d="M2059 3285l0 -369c36,5 72,7 108,7 37,0 73,-2 109,-7l0 369c0,60 -49,109 -109,109l0 0c-59,0 -108,-49 -108,-109z"/>
   </g>
   <g>
    <path class="fil0" d="M2852 2475l0 391c0,60 -49,108 -109,108l0 0c-59,0 -108,-48 -108,-108l0 -112c93,-74 168,-170 217,-279z"/>
    <path class="fil0" d="M2852 1469l0 391c-49,-109 -124,-205 -217,-279l0 -112c0,-60 49,-109 108,-109l0 0c60,0 109,49 109,109z"/>
   </g>
   <g>
    <path class="fil0" d="M2564 2804l0 311c0,60 -49,109 -109,109l0 0c-59,0 -108,-49 -108,-109l0 -219c78,-19 151,-51 217,-92z"/>
    <path class="fil0" d="M2564 1220l0 311c-66,-41 -139,-73 -217,-92l0 -219c0,-60 49,-109 108,-109l0 0c60,0 109,49 109,109z"/>
   </g>
   <rect class="fil0" transform="matrix(-8.96446E-015 0.543074 -0.890457 -3.78384E-014 3427.74 1788.15)" width="1365" height="243" rx="122" ry="122"/>
   <rect class="fil0" transform="matrix(-9.62328E-015 0.839054 -0.890457 -5.44584E-014 3139.75 1594.7)" width="1365" height="243" rx="122" ry="122"/>
   <rect class="fil0" transform="matrix(-6.23691E-015 0.29684 -0.890457 -2.9727E-014 3715.71 1956.23)" width="1365" height="243" rx="122" ry="122"/>
   <path class="fil0" d="M1483 2866l0 -391c49,109 124,205 217,279l0 112c0,60 -49,108 -108,108l0 0c-60,0 -109,-48 -109,-108zm0 -1006l0 -391c0,-60 49,-109 109,-109l0 0c59,0 108,49 108,109l0 112c-93,74 -168,170 -217,279z"/>
   <g>
    <path class="fil0" d="M1771 1531l0 -312c0,-59 49,-108 109,-108l0 0c59,0 108,49 108,108l0 218c-44,11 -85,27 -125,45 -32,14 -63,31 -92,49z"/>
    <path class="fil0" d="M1771 3115l0 -311c29,18 59,34 90,48 41,19 83,35 127,46l0 217c0,60 -49,109 -108,109l0 0c-60,0 -109,-49 -109,-109z"/>
   </g>
   <rect class="fil0" transform="matrix(8.96446E-015 -0.543074 0.890457 3.78384E-014 907.209 2546.77)" width="1365" height="243" rx="122" ry="122"/>
   <rect class="fil0" transform="matrix(9.62328E-015 -0.839054 0.890457 5.44584E-014 1195.2 2740.22)" width="1365" height="243" rx="122" ry="122"/>
   <rect class="fil0" transform="matrix(6.23691E-015 -0.302462 0.890457 3.029E-014 619.236 2382.53)" width="1365" height="243" rx="122" ry="122"/>
  </g>
 </g>
</svg>
