<?xml version="1.0" encoding="UTF-8"?>
<!DOCTYPE svg PUBLIC "-//W3C//DTD SVG 1.1//EN" "http://www.w3.org/Graphics/SVG/1.1/DTD/svg11.dtd">
<!-- Creator: CorelDRAW X7 -->
<svg xmlns="http://www.w3.org/2000/svg" xml:space="preserve" width="512px" height="512px" version="1.1" style="shape-rendering:geometricPrecision; text-rendering:geometricPrecision; image-rendering:optimizeQuality; fill-rule:evenodd; clip-rule:evenodd"
viewBox="0 0 512000 512000"
 xmlns:xlink="http://www.w3.org/1999/xlink">
 <defs>
  <style type="text/css">
   <![CDATA[
    .fil0 {fill:url(#id0)}
    .fil1 {fill:url(#id1);fill-rule:nonzero}
   ]]>
  </style>
  <linearGradient id="id0" gradientUnits="userSpaceOnUse" x1="256002" y1="111185" x2="256002" y2="400813">
   <stop offset="0" style="stop-opacity:1; stop-color:#1DA1CC"/>
   <stop offset="0.239216" style="stop-opacity:1; stop-color:#477EB6"/>
   <stop offset="0.458824" style="stop-opacity:1; stop-color:#825BA1"/>
   <stop offset="1" style="stop-opacity:1; stop-color:#FF311A"/>
  </linearGradient>
  <linearGradient id="id1" gradientUnits="userSpaceOnUse" xlink:href="#id0" x1="256000" y1="0" x2="256000" y2="512000">
  </linearGradient>
 </defs>
 <g id="Layer_x0020_1">
  <metadata id="CorelCorpID_0Corel-Layer"/>
  <g id="_452424856">
   <path class="fil0" d="M255405 216612l-17178 29750 -17177 29751 492 0c20906,-20904 46580,-21141 67720,0l495 0 -17174 -29751 -17178 -29750zm-182266 51990l0 -23173c0,-7039 5759,-12800 12799,-12800l2 0c7039,0 12799,5761 12799,12800l0 23173c0,7042 -5760,12800 -12799,12800l-2 0c-7040,0 -12799,-5758 -12799,-12800zm68027 42247l0 -109698c0,-7042 5759,-12800 12799,-12800l2 0c7039,0 12799,5758 12799,12800l0 109698c0,7042 -5760,12801 -12799,12801l-2 0c-7040,0 -12799,-5759 -12799,-12801zm-34015 -22848l0 -61972c0,-7039 5760,-12798 12800,-12798l1 0c7041,0 12800,5759 12800,12798l0 61972c0,7042 -5759,12801 -12800,12801l-1 0c-7040,0 -12800,-5759 -12800,-12801zm102042 79964l0 -36760c3405,2126 6968,4027 10665,5682 4765,2232 9760,4052 14934,5424l0 25654c0,7040 -5754,12799 -12797,12799l-5 0c-7043,0 -12797,-5759 -12797,-12799zm0 -187168l0 -36763c0,-7040 5754,-12799 12797,-12799l5 0c7043,0 12797,5759 12797,12799l0 25660c-5129,1357 -10083,3161 -14810,5365 -3740,1668 -7344,3589 -10789,5738zm-34013 157725l0 -46228c5819,12932 14651,24213 25600,32958l0 13270c0,7041 -5756,12797 -12799,12797l-6 0c-7041,0 -12795,-5756 -12795,-12797zm0 -118817l0 -46223c0,-7046 5754,-12796 12795,-12796l6 0c7043,0 12799,5750 12799,12796l0 13267c-10949,8743 -19781,20021 -25600,32956zm263685 24146l0 22268c0,7040 -5759,12799 -12800,12799l-1 0c-7041,0 -12799,-5759 -12799,-12799l0 -22268c0,-7040 5758,-12798 12799,-12798l1 0c7041,0 12800,5758 12800,12798zm-68027 -42700l0 109698c0,7042 -5759,12800 -12800,12800l-1 0c-7041,0 -12800,-5758 -12800,-12800l0 -109698c0,-7042 5759,-12800 12800,-12800l1 0c7041,0 12800,5758 12800,12800zm34014 22848l0 61973c0,7039 -5759,12798 -12799,12798l0 0c-7041,0 -12800,-5759 -12800,-12798l0 -61973c0,-7042 5759,-12800 12800,-12800l0 0c7040,0 12799,5758 12799,12800zm-102040 -79962l0 36762c-7804,-4869 -16422,-8554 -25599,-10812l0 -25950c0,-7043 5753,-12797 12795,-12797l5 0c7043,0 12799,5754 12799,12797zm0 187165l0 36763c0,7046 -5756,12799 -12799,12799l-5 0c-7042,0 -12795,-5753 -12795,-12799l0 -25951c9177,-2258 17795,-5943 25599,-10812zm34012 -157720l0 46232c-5817,-12933 -14649,-24220 -25599,-32965l0 -13267c0,-7042 5754,-12796 12797,-12796l5 0c7043,0 12797,5754 12797,12796zm0 118803l0 46237c0,7041 -5754,12797 -12797,12797l-5 0c-7043,0 -12797,-5756 -12797,-12797l0 -13270c10950,-8745 19782,-20032 25599,-32967zm-93619 95732l0 -43661c4180,603 8452,917 12797,917 4349,0 8619,-314 12799,-917l0 43661c0,7042 -5751,12797 -12799,12797l0 0c-7047,0 -12797,-5755 -12797,-12797zm0 -220371l0 -43664c0,-7042 5750,-12797 12797,-12797l0 0c7048,0 12799,5755 12799,12797l0 43664c-4180,-601 -8450,-915 -12799,-915 -4345,0 -8617,314 -12797,915zm12796 2418c47458,0 85936,38478 85936,85936 0,47458 -38478,85935 -85936,85935 -47458,0 -85935,-38477 -85935,-85935 0,-47458 38477,-85936 85935,-85936zm0 38401c26254,0 47535,21281 47535,47535 0,26254 -21281,47535 -47535,47535 -26252,0 -47533,-21281 -47533,-47535 0,-26254 21281,-47535 47533,-47535z"/>
   <path class="fil1" d="M21943 202870l180927 -180927c14629,-14628 33887,-21943 53130,-21943 19243,0 38502,7315 53130,21943l180927 180927c14630,14629 21943,33887 21944,53130 -1,19244 -7314,38502 -21944,53130l-180927 180927c-14628,14628 -33887,21944 -53130,21944 -19243,0 -38501,-7314 -53130,-21944l-180927 -180927c-14628,-14628 -21943,-33886 -21943,-53130 0,-19243 7315,-38502 21943,-53130zm215390 -146464l-180927 180927c-5116,5116 -7675,11884 -7675,18667 1,6783 2559,13552 7675,18667l180927 180928c5116,5115 11884,7674 18667,7674 6783,0 13552,-2559 18667,-7674l180928 -180928c5115,-5115 7674,-11884 7674,-18667 0,-6783 -2559,-13551 -7674,-18667l-180928 -180927c-5115,-5116 -11884,-7674 -18667,-7674 -6783,0 -13551,2558 -18667,7674z"/>
  </g>
 </g>
</svg>
