<?xml version="1.0" encoding="UTF-8"?>
<!DOCTYPE svg PUBLIC "-//W3C//DTD SVG 1.1//EN" "http://www.w3.org/Graphics/SVG/1.1/DTD/svg11.dtd">
<!-- Creator: CorelDRAW X7 -->
<svg xmlns="http://www.w3.org/2000/svg" xml:space="preserve" width="72px" height="72px" version="1.1" style="shape-rendering:geometricPrecision; text-rendering:geometricPrecision; image-rendering:optimizeQuality; fill-rule:evenodd; clip-rule:evenodd"
viewBox="0 0 72000 72000"
 xmlns:xlink="http://www.w3.org/1999/xlink">
 <defs>
  <style type="text/css">
   <![CDATA[
    .fil0 {fill:url(#id0)}
    .fil1 {fill:url(#id1);fill-rule:nonzero}
   ]]>
  </style>
  <linearGradient id="id0" gradientUnits="userSpaceOnUse" x1="36000" y1="15634.8" x2="36000" y2="56365.2">
   <stop offset="0" style="stop-opacity:1; stop-color:#1DA1CC"/>
   <stop offset="0.239216" style="stop-opacity:1; stop-color:#477EB6"/>
   <stop offset="0.458824" style="stop-opacity:1; stop-color:#825BA1"/>
   <stop offset="1" style="stop-opacity:1; stop-color:#FF311A"/>
  </linearGradient>
  <linearGradient id="id1" gradientUnits="userSpaceOnUse" xlink:href="#id0" x1="36000" y1="-1.18114" x2="36000" y2="72001.2">
  </linearGradient>
 </defs>
 <g id="Layer_x0020_1">
  <metadata id="CorelCorpID_0Corel-Layer"/>
  <g id="_454288984">
   <path class="fil0" d="M35916 30460l-2415 4185 -2416 4184 69 0c2940,-2940 6550,-2973 9523,0l70 0 -2415 -4184 -2416 -4185zm-25632 7312l0 -3259c0,-990 810,-1800 1800,-1800l0 0c990,0 1800,810 1800,1800l0 3259c0,991 -810,1800 -1800,1800l0 0c-990,0 -1800,-809 -1800,-1800zm9567 5942l0 -15427c0,-991 810,-1800 1800,-1800l0 0c990,0 1801,809 1801,1800l0 15427c0,990 -811,1800 -1801,1800l0 0c-990,0 -1800,-810 -1800,-1800zm-4783 -3214l0 -8714c0,-991 809,-1800 1800,-1800l0 0c990,0 1800,809 1800,1800l0 8714c0,991 -810,1800 -1800,1800l0 0c-991,0 -1800,-809 -1800,-1800zm14350 11246l0 -5170c478,299 980,566 1500,800 669,313 1372,569 2100,761l0 3609c0,990 -809,1800 -1800,1800l0 0c-991,0 -1800,-810 -1800,-1800zm0 -26322l0 -5170c0,-990 809,-1800 1800,-1800l0 0c991,0 1800,810 1800,1800l0 3609c-722,191 -1419,445 -2083,754 -527,235 -1033,505 -1517,807zm-4784 22181l0 -6501c818,1819 2061,3405 3600,4635l0 1866c0,991 -809,1800 -1799,1800l-1 0c-991,0 -1800,-809 -1800,-1800zm0 -16709l0 -6501c0,-991 809,-1799 1800,-1799l1 0c990,0 1799,808 1799,1799l0 1866c-1539,1230 -2782,2816 -3600,4635zm37082 3396l0 3131c0,990 -809,1800 -1800,1800l0 0c-990,0 -1800,-810 -1800,-1800l0 -3131c0,-991 810,-1800 1800,-1800l0 0c991,0 1800,809 1800,1800zm-9566 -6005l0 15427c0,990 -811,1799 -1800,1799l0 0c-990,0 -1800,-809 -1800,-1799l0 -15427c0,-991 810,-1800 1800,-1800l0 0c989,0 1800,809 1800,1800zm4783 3213l0 8714c0,991 -810,1800 -1800,1800l0 0c-991,0 -1800,-809 -1800,-1800l0 -8714c0,-990 809,-1800 1800,-1800l0 0c990,0 1800,810 1800,1800zm-14351 -11246l0 5170c-1097,-684 -2309,-1202 -3598,-1520l0 -3650c0,-990 809,-1799 1798,-1799l2 0c989,0 1798,809 1798,1799zm0 26322l0 5170c0,991 -809,1800 -1798,1800l-2 0c-989,0 -1798,-809 -1798,-1800l0 -3650c1289,-318 2501,-836 3598,-1520zm4784 -22181l0 6502c-817,-1818 -2060,-3406 -3600,-4636l0 -1866c0,-990 809,-1799 1800,-1799l0 0c991,0 1800,809 1800,1799zm0 16708l0 6502c0,991 -809,1800 -1800,1800l0 0c-991,0 -1800,-809 -1800,-1800l0 -1866c1540,-1230 2783,-2818 3600,-4636zm-13165 13462l0 -6139c587,85 1188,128 1799,128 612,0 1212,-43 1800,-128l0 6139c0,991 -809,1800 -1800,1800l0 0c-991,0 -1799,-809 -1799,-1800zm0 -30991l0 -6139c0,-991 808,-1800 1799,-1800l0 0c991,0 1800,809 1800,1800l0 6139c-588,-83 -1188,-128 -1800,-128 -611,0 -1212,45 -1799,128zm1799 341c6675,0 12085,5412 12085,12085 0,6673 -5410,12085 -12085,12085 -6673,0 -12085,-5412 -12085,-12085 0,-6673 5412,-12085 12085,-12085zm0 5400c3692,0 6685,2993 6685,6685 0,3692 -2993,6685 -6685,6685 -3692,0 -6684,-2993 -6684,-6685 0,-3692 2992,-6685 6684,-6685z"/>
   <path class="fil1" d="M3085 28528l25443 -25443c2058,-2057 4766,-3086 7472,-3086 2706,0 5414,1029 7472,3086l25443 25443c2057,2058 3086,4766 3086,7472 0,2706 -1029,5414 -3086,7472l-25443 25443c-2058,2057 -4766,3086 -7472,3086 -2706,0 -5414,-1029 -7472,-3086l-25443 -25443c-2057,-2058 -3086,-4766 -3086,-7472 0,-2706 1029,-5414 3086,-7472zm30289 -20597l-25443 25443c-719,721 -1079,1672 -1079,2626 0,954 360,1906 1079,2626l25443 25443c721,719 1672,1079 2626,1079 954,0 1906,-360 2626,-1079l25443 -25443c719,-720 1079,-1672 1079,-2626 0,-954 -360,-1905 -1079,-2626l-25443 -25443c-720,-719 -1672,-1079 -2626,-1079 -954,0 -1905,360 -2626,1079z"/>
  </g>
 </g>
</svg>
