<?xml version="1.0" encoding="UTF-8"?>
<!DOCTYPE svg PUBLIC "-//W3C//DTD SVG 1.1//EN" "http://www.w3.org/Graphics/SVG/1.1/DTD/svg11.dtd">
<!-- Creator: CorelDRAW X7 -->
<svg xmlns="http://www.w3.org/2000/svg" xml:space="preserve" width="96px" height="96px" version="1.1" style="shape-rendering:geometricPrecision; text-rendering:geometricPrecision; image-rendering:optimizeQuality; fill-rule:evenodd; clip-rule:evenodd"
viewBox="0 0 96000 96000"
 xmlns:xlink="http://www.w3.org/1999/xlink">
 <defs>
  <style type="text/css">
   <![CDATA[
    .fil0 {fill:url(#id0)}
    .fil1 {fill:url(#id1);fill-rule:nonzero}
   ]]>
  </style>
  <linearGradient id="id0" gradientUnits="userSpaceOnUse" x1="48000" y1="20847" x2="48000" y2="75153">
   <stop offset="0" style="stop-opacity:1; stop-color:#1DA1CC"/>
   <stop offset="0.239216" style="stop-opacity:1; stop-color:#477EB6"/>
   <stop offset="0.458824" style="stop-opacity:1; stop-color:#825BA1"/>
   <stop offset="1" style="stop-opacity:1; stop-color:#FF311A"/>
  </linearGradient>
  <linearGradient id="id1" gradientUnits="userSpaceOnUse" xlink:href="#id0" x1="48000" y1="-1.18113" x2="48000" y2="96001.2">
  </linearGradient>
 </defs>
 <g id="Layer_x0020_1">
  <metadata id="CorelCorpID_0Corel-Layer"/>
  <g id="_459871064">
   <path class="fil0" d="M47888 40614l-3221 5579 -3220 5578 92 0c3920,-3920 8733,-3964 12697,0l94 0 -3221 -5578 -3221 -5579zm-34175 9749l0 -4345c0,-1320 1079,-2400 2400,-2400l0 0c1319,0 2400,1080 2400,2400l0 4345c0,1321 -1081,2401 -2400,2401l0 0c-1321,0 -2400,-1080 -2400,-2401zm12755 7921l0 -20568c0,-1321 1080,-2400 2400,-2400l0 0c1321,0 2400,1079 2400,2400l0 20568c0,1321 -1079,2400 -2400,2400l0 0c-1320,0 -2400,-1079 -2400,-2400zm-6378 -4284l0 -11620c0,-1319 1081,-2400 2400,-2400l0 0c1320,0 2400,1081 2400,2400l0 11620c0,1321 -1080,2400 -2400,2400l0 0c-1319,0 -2400,-1079 -2400,-2400zm19133 14995l0 -6893c639,398 1308,754 2000,1065 894,418 1830,759 2800,1017l0 4811c0,1319 -1078,2398 -2399,2398l-1 0c-1320,0 -2400,-1079 -2400,-2398zm0 -35095l0 -6895c0,-1319 1080,-2398 2400,-2398l1 0c1321,0 2399,1079 2399,2398l0 4812c-961,254 -1890,593 -2777,1007 -701,311 -1377,672 -2023,1076zm-6377 29573l0 -8667c1091,2425 2747,4539 4800,6179l0 2488c0,1320 -1079,2400 -2400,2400l-1 0c-1321,0 -2399,-1080 -2399,-2400zm0 -22279l0 -8667c0,-1320 1078,-2399 2399,-2399l1 0c1321,0 2400,1079 2400,2399l0 2489c-2053,1638 -3709,3753 -4800,6178zm49442 4528l0 4175c0,1320 -1079,2400 -2400,2400l0 0c-1320,0 -2400,-1080 -2400,-2400l0 -4175c0,-1320 1080,-2399 2400,-2399l0 0c1321,0 2400,1079 2400,2399zm-12756 -8006l0 20568c0,1321 -1080,2400 -2399,2400l-1 0c-1319,0 -2400,-1079 -2400,-2400l0 -20568c0,-1321 1081,-2400 2400,-2400l1 0c1319,0 2399,1079 2399,2400zm6378 4284l0 11620c0,1320 -1079,2400 -2400,2400l0 0c-1319,0 -2400,-1080 -2400,-2400l0 -11620c0,-1321 1081,-2400 2400,-2400l0 0c1321,0 2400,1079 2400,2400zm-19133 -14993l0 6893c-1462,-913 -3079,-1604 -4800,-2028l0 -4865c0,-1321 1079,-2400 2400,-2400l1 0c1321,0 2399,1079 2399,2400zm0 35093l0 6895c0,1320 -1078,2398 -2399,2398l-1 0c-1321,0 -2400,-1078 -2400,-2398l0 -4867c1721,-424 3338,-1115 4800,-2028zm6378 -29573l0 8670c-1091,-2426 -2747,-4542 -4800,-6181l0 -2489c0,-1320 1078,-2399 2399,-2399l1 0c1321,0 2400,1079 2400,2399zm0 22276l0 8670c0,1320 -1079,2400 -2400,2400l-1 0c-1321,0 -2399,-1080 -2399,-2400l0 -2488c2053,-1640 3709,-3756 4800,-6182zm-17554 17951l0 -8186c783,112 1585,171 2399,171 816,0 1617,-59 2400,-171l0 8186c0,1319 -1078,2399 -2400,2399l0 0c-1321,0 -2399,-1080 -2399,-2399zm0 -41321l0 -8187c0,-1321 1078,-2399 2399,-2399l0 0c1322,0 2400,1078 2400,2399l0 8187c-783,-113 -1584,-172 -2400,-172 -814,0 -1616,59 -2399,172zm2399 454c8899,0 16113,7214 16113,16113 0,8899 -7214,16113 -16113,16113 -8899,0 -16113,-7214 -16113,-16113 0,-8899 7214,-16113 16113,-16113zm0 7200c4923,0 8913,3990 8913,8913 0,4923 -3990,8913 -8913,8913 -4922,0 -8913,-3990 -8913,-8913 0,-4923 3991,-8913 8913,-8913z"/>
   <path class="fil1" d="M4114 38038l33924 -33924c2743,-2744 6354,-4115 9962,-4115 3608,0 7219,1371 9962,4115l33925 33924c2743,2743 4114,6354 4114,9962 0,3608 -1371,7219 -4114,9962l-33925 33925c-2743,2743 -6354,4114 -9962,4114 -3608,0 -7219,-1371 -9962,-4114l-33924 -33925c-2744,-2743 -4115,-6354 -4115,-9962 0,-3608 1371,-7219 4115,-9962zm40386 -27463l-33925 33925c-959,959 -1439,2228 -1439,3500 0,1272 480,2541 1439,3500l33925 33925c959,959 2228,1439 3500,1439 1272,0 2541,-480 3500,-1439l33925 -33925c959,-959 1439,-2228 1439,-3500 0,-1272 -480,-2541 -1439,-3500l-33925 -33925c-959,-959 -2228,-1439 -3500,-1439 -1272,0 -2541,480 -3500,1439z"/>
  </g>
 </g>
</svg>
